<?xml version="1.0" standalone="no"?>
<!DOCTYPE svg PUBLIC "-//W3C//DTD SVG 20010904//EN"
 "http://www.w3.org/TR/2001/REC-SVG-20010904/DTD/svg10.dtd">
<svg version="1.0" xmlns="http://www.w3.org/2000/svg"
 width="3413.000000pt" height="1920.000000pt" viewBox="0 0 3413.000000 1920.000000"
 preserveAspectRatio="xMidYMid meet">

<g transform="translate(0.000000,1920.000000) scale(0.100000,-0.100000)"
fill="#000000" stroke="none">
<path d="M0 14370 c0 -2656 2 -4830 5 -4830 3 0 89 46 192 101 104 56 226 122
273 147 47 24 112 59 145 77 33 18 92 49 130 70 124 66 219 118 270 145 28 15
124 67 215 115 91 48 190 102 220 119 109 63 146 76 212 75 78 -1 190 -15 139
-18 -74 -3 -137 11 1079 -237 520 -106 879 -177 995 -199 50 -9 133 -26 185
-36 52 -11 106 -21 120 -24 14 -2 63 -13 110 -24 80 -20 533 -114 795 -165 66
-13 210 -43 320 -66 213 -45 221 -45 445 -21 96 11 226 23 815 77 264 24 536
51 605 59 69 8 285 29 480 45 195 17 416 37 490 45 74 8 286 28 470 45 833 75
832 75 823 110 -3 11 -10 23 -16 27 -6 4 -7 1 -2 -8 7 -12 5 -12 -6 -1 -11 10
-11 15 -2 20 19 12 -3 83 -22 75 -9 -3 -15 1 -15 10 0 9 -3 24 -7 34 -3 10 -3
15 2 11 4 -4 15 -2 23 5 13 10 14 8 8 -11 -5 -15 -1 -31 12 -50 11 -15 25 -46
31 -70 8 -29 17 -42 29 -42 10 0 23 -5 30 -12 12 -12 161 -3 387 22 88 10 212
22 470 46 94 8 258 24 365 34 335 33 576 55 710 65 41 3 84 7 95 10 23 5 218
24 315 31 36 2 88 9 115 14 28 5 125 14 217 20 92 6 182 13 200 15 46 6 320
33 453 45 248 21 326 32 460 59 77 16 201 41 275 56 74 14 169 36 210 47 41
11 120 26 175 33 55 8 150 25 210 39 61 14 128 28 150 31 54 8 59 9 145 28 41
9 109 23 150 31 41 8 127 26 190 40 63 14 174 35 245 47 72 12 144 27 160 34
38 17 81 25 175 32 41 3 78 10 81 15 6 9 75 22 187 35 28 3 52 10 52 15 0 5
16 6 36 2 24 -4 35 -3 31 3 -8 13 39 23 102 23 26 0 52 5 57 10 6 6 34 13 62
17 29 3 52 10 52 15 0 5 10 6 21 3 14 -5 25 -2 30 6 6 11 11 11 20 2 9 -9 24
-7 63 8 64 26 169 49 219 49 28 0 36 3 31 13 -6 9 -5 9 7 0 9 -7 33 -12 55
-10 29 1 39 -2 39 -13 0 -16 -50 -30 -120 -33 -22 -1 -44 -5 -50 -8 -5 -4 -39
-9 -75 -13 -107 -11 -134 -17 -118 -28 9 -6 4 -8 -17 -7 -16 1 -37 -1 -45 -4
-36 -13 -103 -25 -115 -21 -7 3 -16 1 -19 -4 -3 -6 -15 -8 -26 -5 -11 3 -27 0
-36 -8 -15 -12 -59 -20 -122 -20 -18 0 -30 -4 -28 -8 3 -4 0 -8 -7 -9 -52 -7
-96 -11 -120 -11 -16 -1 -26 -5 -23 -10 7 -10 -52 -26 -61 -17 -3 3 -15 0 -26
-5 -18 -10 -40 -14 -124 -22 -13 -1 -23 -5 -23 -8 0 -5 -56 -17 -100 -21 -3
-1 -30 -7 -60 -15 -30 -7 -102 -22 -160 -33 -58 -11 -150 -28 -205 -40 -55
-11 -122 -24 -150 -30 -86 -17 -289 -58 -320 -65 -55 -11 -209 -42 -295 -59
-47 -9 -114 -23 -150 -31 -36 -8 -139 -28 -230 -45 -91 -17 -190 -37 -220 -45
-30 -7 -86 -19 -125 -25 -38 -7 -76 -16 -84 -20 -17 -9 2 -23 199 -144 74 -46
213 -132 309 -192 175 -110 248 -155 337 -208 27 -16 60 -36 74 -46 14 -9 86
-54 160 -100 74 -45 182 -113 240 -149 115 -73 114 -72 191 -118 30 -17 59
-36 66 -42 7 -6 15 -11 18 -11 3 0 36 -20 73 -44 37 -23 110 -70 162 -102 l95
-59 135 -6 135 -5 -175 -1 c-150 -1 -353 11 -265 16 26 1 17 8 -70 62 -55 34
-116 72 -135 84 -19 12 -62 39 -95 60 -33 20 -126 78 -206 128 -147 92 -317
198 -354 220 -11 7 -46 29 -78 50 -32 20 -60 37 -63 37 -5 0 -87 52 -94 60 -3
3 -27 19 -55 35 -27 15 -52 31 -55 34 -3 3 -16 12 -30 20 -24 14 -142 86 -317
195 -44 28 -134 84 -199 125 l-119 73 -79 -83 c-44 -46 -179 -187 -300 -314
-122 -126 -238 -248 -260 -270 -21 -22 -122 -127 -225 -234 -102 -106 -190
-199 -194 -207 -5 -9 -26 -14 -57 -14 -28 0 -50 1 -50 3 0 1 42 45 93 98 100
103 280 290 422 440 50 52 167 176 261 274 230 241 274 288 274 298 0 10 -105
3 -305 -19 -159 -17 -387 -38 -685 -64 -124 -11 -292 -26 -375 -35 -82 -8
-175 -17 -205 -19 -112 -10 -288 -27 -390 -36 -58 -6 -206 -19 -330 -30 -124
-11 -245 -22 -270 -25 -25 -3 -214 -21 -420 -40 -384 -35 -1177 -109 -1835
-170 -203 -20 -494 -46 -645 -60 -151 -14 -369 -34 -485 -45 -266 -26 -525
-50 -1037 -97 -225 -20 -408 -40 -408 -43 0 -3 24 -15 53 -27 28 -12 153 -67
277 -123 124 -56 261 -117 305 -135 l81 -34 1059 -10 c583 -6 1355 -13 1715
-16 806 -7 839 -8 1085 -50 50 -9 245 -36 435 -61 277 -36 857 -114 1040 -138
154 -22 423 -57 460 -62 25 -3 137 -18 250 -34 113 -16 243 -33 290 -39 47 -6
234 -32 415 -57 l330 -45 135 16 c74 9 200 25 280 36 80 11 244 33 365 49 300
40 743 101 1080 148 154 22 304 43 333 47 28 4 52 11 52 16 0 5 27 9 60 9 33
0 60 -3 60 -7 0 -5 -215 -39 -478 -76 -262 -38 -547 -79 -632 -92 -85 -14
-173 -25 -195 -26 -38 -2 -38 -2 -7 -6 18 -2 178 12 355 31 177 20 365 40 417
46 52 5 154 17 225 25 72 8 261 28 420 45 160 17 301 33 315 35 14 2 135 16
270 30 270 28 385 40 505 55 44 6 168 20 275 31 107 11 539 58 960 105 421 46
806 88 855 94 287 31 525 61 560 70 22 5 67 10 100 10 33 0 98 5 144 10 108
14 144 24 576 160 143 45 292 91 330 102 135 40 300 90 340 104 22 7 87 27
145 43 90 25 239 70 318 95 13 5 22 3 22 -3 0 -6 -7 -11 -16 -11 -15 0 -61
-13 -174 -50 -30 -10 -127 -39 -215 -65 -88 -26 -185 -55 -215 -66 -49 -16
-280 -87 -749 -228 -85 -25 -148 -47 -140 -49 8 -1 298 29 644 68 347 38 1298
144 2115 235 817 90 1502 168 1523 172 l37 8 -121 95 c-184 144 -211 164 -389
302 -257 199 -260 202 -257 213 4 12 147 16 147 3 0 -4 -11 -8 -25 -8 -14 0
-25 -4 -25 -9 0 -5 30 -33 68 -62 37 -30 69 -56 72 -59 3 -4 75 -62 160 -131
85 -68 164 -131 175 -140 11 -10 71 -58 134 -108 113 -90 115 -91 170 -91 66
0 440 14 946 35 474 20 861 27 720 14 -55 -5 -197 -14 -315 -19 -307 -12 403
-4 1245 15 352 8 816 17 1030 21 215 4 397 10 405 15 13 7 13 9 0 9 -68 5 -95
18 -95 45 0 26 9 33 20 15 4 -6 10 -8 14 -6 4 3 38 -4 76 -15 174 -48 147 -48
275 9 30 13 102 44 160 69 58 25 130 56 160 70 30 14 231 101 445 195 215 93
404 176 420 183 66 31 173 78 250 110 45 18 116 49 158 69 41 19 108 48 148
66 41 17 101 43 134 57 90 39 99 42 115 45 8 2 18 7 21 11 3 4 39 19 79 33 71
25 74 25 114 9 67 -28 119 -56 156 -84 36 -28 98 -66 185 -117 28 -16 57 -33
66 -39 9 -5 34 -20 55 -31 39 -22 320 -187 529 -312 61 -36 124 -73 140 -82
17 -8 80 -45 140 -81 61 -36 178 -105 260 -154 83 -48 236 -138 340 -200 105
-62 269 -158 365 -215 96 -56 195 -115 220 -130 98 -60 408 -239 458 -264 l52
-26 0 4970 0 4970 -17065 0 -17065 0 0 -4830z m31623 -2214 c7 -22 7 -31 -1
-34 -7 -2 -12 -12 -12 -22 0 -16 -34 -30 -75 -30 -16 0 -37 47 -25 55 6 4 10
15 10 25 0 11 11 22 28 29 43 16 64 9 75 -23z m-17946 -178 c-3 -8 -6 -5 -6 6
-1 11 2 17 5 13 3 -3 4 -12 1 -19z m9971 -207 c-2 -16 -14 -38 -28 -49 -19
-15 -24 -28 -22 -56 3 -40 0 -41 -48 -25 -32 12 -32 12 -26 65 10 87 14 91 89
93 36 1 38 0 35 -28z m-58 -157 c0 -3 -7 -12 -15 -20 -12 -13 -15 -13 -15 -1
0 7 3 17 7 20 8 8 23 9 23 1z m-14761 -33 c20 -15 23 -24 17 -54 -5 -29 -10
-35 -31 -33 -14 0 -25 5 -25 9 0 5 -4 6 -9 3 -9 -6 -61 48 -61 63 0 10 45 29
70 30 8 0 26 -8 39 -18z m14771 -1 c0 -5 -4 -10 -10 -10 -5 0 -10 5 -10 10 0
6 5 10 10 10 6 0 10 -4 10 -10z m-32 -58 c2 -17 -2 -41 -9 -54 -8 -14 -8 -23
-2 -25 13 -5 4 -96 -11 -105 -8 -5 -7 -8 2 -8 9 0 10 -5 2 -19 -5 -11 -10 -42
-10 -69 0 -27 -7 -66 -15 -85 -8 -20 -15 -62 -16 -94 0 -32 -4 -78 -8 -103 -8
-42 -9 -43 -10 -11 0 19 -4 31 -7 28 -4 -4 -6 -39 -5 -79 1 -40 -3 -87 -8
-104 -6 -21 -5 -36 2 -43 7 -7 7 -18 -3 -38 -7 -16 -15 -48 -17 -73 -2 -25 -5
-65 -7 -90 -3 -25 -5 -61 -5 -81 -1 -31 -5 -38 -28 -44 -16 -4 -29 -2 -31 4
-2 5 -9 8 -16 5 -11 -4 -13 6 -9 43 3 26 9 53 13 58 4 6 8 35 9 65 1 30 6 57
10 60 5 3 7 20 6 38 -1 18 2 35 7 38 5 3 6 14 3 25 -4 10 -2 19 3 19 6 0 8 17
5 40 -4 27 -2 40 6 40 7 0 9 5 6 10 -4 6 -1 17 5 25 7 8 12 33 12 55 0 22 4
40 10 40 6 0 9 28 8 73 -3 113 -1 135 10 117 7 -11 10 0 11 40 1 30 1 58 0 63
0 4 3 7 7 7 8 0 14 46 16 117 1 17 5 35 10 40 6 5 6 2 1 -7 -5 -8 -4 -12 0 -7
5 4 8 26 6 47 -1 25 2 40 9 40 6 0 8 5 5 10 -3 6 -3 15 0 21 12 19 30 3 33
-29z m-6376 -453 c13 -5 41 -21 63 -34 22 -13 66 -38 97 -55 33 -17 64 -42 72
-58 8 -15 23 -33 35 -41 11 -8 18 -18 15 -23 -3 -4 5 -8 18 -8 13 0 30 -6 37
-12 6 -7 15 -13 19 -14 28 -3 61 -18 56 -25 -3 -5 2 -9 10 -9 9 0 16 -7 16
-16 0 -19 -19 -14 -106 27 -34 16 -66 29 -70 29 -5 0 -18 8 -29 17 -16 13 -17
15 -2 10 9 -4 17 -2 17 3 0 6 -15 10 -32 11 -18 0 -27 3 -20 6 8 3 0 12 -20
23 -18 9 -38 16 -44 13 -6 -2 -19 8 -28 22 -10 15 -23 24 -31 21 -7 -2 -21 4
-31 15 -11 12 -28 19 -42 17 -20 -2 -28 -12 -38 -48 -17 -55 -41 -160 -59
-258 -8 -40 -17 -77 -20 -82 -3 -5 -14 -53 -24 -107 -11 -54 -27 -129 -36
-168 -9 -38 -29 -131 -46 -205 -16 -74 -35 -164 -43 -200 -9 -36 -22 -96 -31
-135 -8 -38 -20 -90 -25 -115 -14 -62 -16 -71 -40 -190 -11 -58 -26 -123 -31
-145 -6 -22 -13 -51 -16 -65 -9 -52 -23 -108 -33 -134 -8 -21 -16 -26 -43 -26
l-34 0 8 48 c5 26 16 70 24 97 8 28 17 66 19 85 5 30 49 235 76 350 4 19 18
82 30 140 12 58 30 143 40 190 10 47 25 114 35 150 9 36 18 79 21 95 2 17 16
82 29 145 14 63 30 135 35 160 26 125 72 329 80 356 15 46 12 82 -7 93 -16 10
-16 13 10 36 30 27 78 33 119 14z m-172 -33 c0 -8 -60 -12 -72 -4 -8 4 4 8 30
8 23 0 42 -2 42 -4z m-130 -16 c-12 -8 -12 -10 -1 -10 8 0 12 -3 8 -6 -3 -3
-16 -2 -29 2 -22 7 -22 7 -3 15 28 11 43 10 25 -1z m-57 -7 c-7 -2 -19 -2 -25
0 -7 3 -2 5 12 5 14 0 19 -2 13 -5z m-28 -23 c3 -6 -1 -7 -9 -4 -18 7 -21 14
-7 14 6 0 13 -4 16 -10z m-50 -11 c20 -1 24 -3 11 -6 -15 -4 -16 -7 -5 -14 10
-6 7 -9 -11 -9 -41 0 -70 11 -70 27 0 11 6 14 23 9 12 -3 36 -6 52 -7z
m-12207 -158 l23 -12 -20 -18 c-12 -10 -21 -25 -21 -33 0 -18 -41 -38 -80 -38
-16 0 -42 11 -59 26 l-31 26 22 17 c63 47 118 58 166 32z m13157 -91 c4 -6 9
-9 13 -6 4 2 16 -6 27 -17 l20 -20 -30 7 c-16 4 -43 16 -60 27 l-30 19 27 0
c15 0 30 -5 33 -10z m145 -91 c9 -15 7 -19 -7 -19 -10 0 -24 4 -32 9 -12 8
-12 11 0 24 16 17 25 14 39 -14z m64 -44 c-4 -9 0 -15 8 -15 8 0 25 -11 38
-25 13 -14 19 -25 14 -25 -5 0 -15 9 -22 20 -7 11 -19 20 -27 20 -8 0 -24 9
-35 20 l-20 20 25 0 c18 0 23 -4 19 -15z m-8649 -45 c3 -5 2 -10 -4 -10 -5 0
-13 5 -16 10 -3 6 -2 10 4 10 5 0 13 -4 16 -10z m8957 -147 c-6 -2 -10 -9 -6
-14 3 -5 0 -9 -5 -9 -12 0 -14 13 -4 23 3 4 11 7 17 6 6 0 5 -3 -2 -6z
m-16355 -29 c-3 -3 -12 -4 -19 -1 -8 3 -5 6 6 6 11 1 17 -2 13 -5z m76 -1 c-7
-2 -19 -2 -25 0 -7 3 -2 5 12 5 14 0 19 -2 13 -5z m80 -10 c-7 -2 -19 -2 -25
0 -7 3 -2 5 12 5 14 0 19 -2 13 -5z m904 1 c-3 -3 -12 -4 -19 -1 -8 3 -5 6 6
6 11 1 17 -2 13 -5z m-59 -27 c10 -9 42 -22 72 -29 30 -6 57 -15 60 -19 5 -6
33 -14 93 -26 15 -3 27 -9 27 -14 0 -5 6 -9 14 -9 8 0 17 -4 20 -9 3 -4 -21
-8 -54 -7 -33 1 -60 4 -60 8 0 4 -23 10 -50 14 -28 4 -53 11 -56 15 -3 5 -15
9 -27 9 -36 0 -147 43 -147 56 0 32 76 40 108 11z m6532 15 c0 -5 -7 -9 -15
-9 -8 0 -15 4 -15 9 0 4 7 8 15 8 8 0 15 -4 15 -8z m24317 -64 c-3 -7 -5 -2
-5 12 0 14 2 19 5 13 2 -7 2 -19 0 -25z m-15287 -19 c0 -5 15 -16 33 -24 l32
-15 -30 6 c-16 3 -38 14 -47 24 -22 23 -23 31 -3 24 8 -4 15 -10 15 -15z m90
-59 c0 -5 -2 -10 -4 -10 -3 0 -8 5 -11 10 -3 6 -1 10 4 10 6 0 11 -4 11 -10z
m30 -11 c0 -6 -4 -7 -10 -4 -5 3 -10 11 -10 16 0 6 5 7 10 4 6 -3 10 -11 10
-16z m-14950 -49 c0 -5 -5 -10 -11 -10 -5 0 -7 5 -4 10 3 6 8 10 11 10 2 0 4
-4 4 -10z m24920 -59 c0 -13 -34 -23 -54 -15 -28 11 -18 24 19 24 19 0 35 -4
35 -9z m-19030 -15 c0 -2 3 -11 6 -20 3 -9 1 -16 -5 -16 -6 0 -11 6 -11 14 0
8 -6 17 -12 19 -8 3 -6 6 5 6 9 1 17 -1 17 -3z m12643 -33 c-7 -2 -19 -2 -25
0 -7 3 -2 5 12 5 14 0 19 -2 13 -5z m-74 -17 c-12 -10 -69 -24 -69 -16 0 5 10
11 23 13 31 6 51 8 46 3z m4718 -12 c-3 -3 -12 -4 -19 -1 -8 3 -5 6 6 6 11 1
17 -2 13 -5z m-297 -14 c0 -13 -11 -13 -30 0 -12 8 -11 10 8 10 12 0 22 -4 22
-10z m80 0 c0 -5 -12 -10 -27 -10 -22 0 -25 2 -13 10 20 13 40 13 40 0z
m-4650 -21 c-19 -5 -43 -14 -52 -19 -11 -6 -19 -6 -23 0 -4 6 -3 10 2 9 4 -1
15 0 23 4 33 12 46 15 65 15 11 0 4 -4 -15 -9z m-95 -29 c-3 -5 -14 -10 -23
-10 -15 0 -15 2 -2 10 20 13 33 13 25 0z m-2848 -36 c-3 -3 -12 -4 -19 -1 -8
3 -5 6 6 6 11 1 17 -2 13 -5z m14423 -40 c0 -8 -4 -12 -10 -9 -5 3 -10 10 -10
16 0 5 5 9 10 9 6 0 10 -7 10 -16z m-20 -45 c0 -5 -6 -9 -14 -9 -8 0 -16 -5
-18 -12 -3 -7 -7 -6 -11 5 -5 13 -1 17 14 17 13 0 18 4 13 12 -4 7 -3 8 4 4 7
-4 12 -11 12 -17z m-20717 -716 c-13 -2 -33 -2 -45 0 -13 2 -3 4 22 4 25 0 35
-2 23 -4z m135 0 c-10 -2 -28 -2 -40 0 -13 2 -5 4 17 4 22 1 32 -1 23 -4z
m305 -10 c-29 -2 -78 -2 -110 0 -32 2 -8 3 52 3 61 0 87 -1 58 -3z m390 -10
c-35 -2 -91 -2 -125 0 -35 2 -7 3 62 3 69 0 97 -1 63 -3z m94 1 c-3 -3 -12 -4
-19 -1 -8 3 -5 6 6 6 11 1 17 -2 13 -5z m305 -11 c-40 -2 -103 -2 -140 0 -37
2 -4 3 73 3 77 0 107 -2 67 -3z m401 -10 c-46 -2 -120 -2 -165 0 -46 1 -9 3
82 3 91 0 128 -2 83 -3z m370 -10 c-34 -2 -93 -2 -130 0 -37 2 -9 3 62 3 72 0
102 -1 68 -3z m110 0 c-7 -2 -21 -2 -30 0 -10 3 -4 5 12 5 17 0 24 -2 18 -5z
m225 -10 c-26 -2 -71 -2 -100 0 -29 2 -8 3 47 3 55 0 79 -1 53 -3z m79 1 c-3
-3 -12 -4 -19 -1 -8 3 -5 6 6 6 11 1 17 -2 13 -5z m676 -21 c-13 -2 -33 -2
-45 0 -13 2 -3 4 22 4 25 0 35 -2 23 -4z"/>
<path d="M31080 10964 c-14 -7 -46 -22 -72 -33 -27 -12 -67 -30 -90 -40 -24
-11 -65 -29 -93 -39 -27 -11 -81 -34 -120 -52 -38 -17 -79 -35 -90 -40 -82
-36 -138 -60 -190 -81 -33 -13 -62 -27 -65 -30 -3 -3 -16 -10 -30 -14 -14 -4
-50 -19 -80 -32 -73 -33 -126 -56 -260 -113 -41 -18 -94 -41 -117 -51 -24 -11
-45 -19 -47 -19 -3 0 -33 -13 -68 -29 -90 -41 -233 -103 -563 -245 -159 -69
-283 -127 -275 -130 8 -3 134 -21 280 -41 146 -19 378 -51 515 -70 138 -20
333 -46 435 -60 247 -32 580 -78 885 -120 138 -19 369 -50 515 -70 146 -20
393 -54 550 -75 157 -22 355 -49 440 -60 85 -11 202 -27 260 -35 284 -39 421
-58 730 -100 184 -24 353 -48 375 -51 l40 -6 -35 24 c-19 14 -66 43 -105 65
-38 22 -164 96 -280 163 -115 68 -230 134 -255 148 -25 14 -97 56 -160 93
-117 68 -461 268 -515 299 -16 9 -65 38 -108 64 -43 25 -81 46 -83 46 -2 0
-37 20 -77 44 -156 94 -487 286 -493 286 -3 0 -24 13 -47 29 -23 15 -47 30
-52 32 -6 2 -66 37 -135 77 -69 40 -132 77 -140 82 -8 5 -50 29 -93 54 -43 25
-80 46 -82 46 -3 0 -30 16 -61 36 -84 54 -114 64 -144 48z"/>
<path d="M16575 10940 c3 -5 8 -10 11 -10 2 0 4 5 4 10 0 6 -5 10 -11 10 -5 0
-7 -4 -4 -10z"/>
<path d="M1635 10348 c-2 -7 -9 -173 -15 -368 -6 -195 -15 -488 -20 -650 -19
-575 -39 -1238 -46 -1502 l-7 -267 94 40 c52 23 112 49 134 59 22 10 74 32
115 50 41 17 98 42 125 55 28 13 149 67 270 120 230 101 310 137 360 160 54
26 396 175 401 175 2 0 38 16 80 35 41 19 77 35 79 35 2 0 41 17 87 39 45 21
128 58 183 81 55 23 118 51 139 61 21 11 60 28 85 39 25 10 98 41 161 70 63
29 187 83 275 122 88 38 183 80 210 92 28 13 84 38 125 56 41 18 98 42 125 55
28 12 100 44 160 71 61 27 126 58 146 69 74 42 659 509 646 516 -7 4 -59 17
-117 28 -58 11 -283 57 -500 101 -217 44 -505 103 -640 130 -135 27 -434 88
-665 135 -231 47 -496 101 -590 120 -93 19 -370 75 -615 125 -245 50 -479 97
-520 105 -41 7 -106 21 -145 29 -38 9 -80 19 -93 21 -13 3 -24 0 -27 -7z"/>
<path d="M1440 10279 c-63 -34 -214 -114 -335 -179 -121 -65 -272 -145 -335
-178 -63 -34 -261 -139 -440 -234 l-325 -174 -3 -1317 c-2 -1356 -3 -1342 34
-1308 5 5 59 30 119 56 61 26 133 57 160 70 83 39 165 75 171 75 2 0 41 17 87
39 45 21 92 41 104 45 12 4 53 22 92 41 40 19 74 35 77 35 3 0 36 14 72 31 37
17 94 42 127 56 33 13 98 43 145 65 47 22 105 48 130 58 25 10 70 30 102 44
l56 26 6 72 c3 40 8 163 11 273 3 110 14 479 25 820 11 341 24 778 30 970 5
193 13 423 16 513 4 92 3 162 -2 162 -5 0 -61 -28 -124 -61z"/>
<path d="M28050 9968 c-212 -3 -617 -11 -900 -17 -283 -6 -909 -18 -1390 -26
-481 -8 -939 -18 -1017 -21 l-143 -6 5 -62 c3 -33 23 -392 45 -796 22 -404 47
-841 55 -970 8 -129 19 -327 25 -440 20 -395 18 -386 99 -374 25 4 53 7 61 6
8 0 22 2 30 4 13 5 13 6 0 14 -11 7 -7 10 17 10 17 0 35 4 38 10 3 5 20 7 37
3 26 -5 30 -3 25 9 -4 11 1 18 14 21 10 3 19 0 19 -6 0 -8 4 -7 12 1 7 7 26
12 43 12 16 1 41 7 55 15 14 8 42 14 62 15 20 0 43 7 52 15 8 8 28 15 45 15
16 0 42 5 58 11 15 6 37 12 48 14 42 6 75 17 70 25 -9 14 86 28 155 24 75 -5
339 -49 421 -70 31 -8 70 -14 86 -14 16 0 34 -5 40 -11 5 -5 28 -12 49 -14 91
-10 129 -17 134 -25 3 -5 28 -10 55 -11 28 -1 57 -6 66 -10 8 -4 44 -10 80
-14 35 -4 68 -11 74 -16 5 -5 32 -9 60 -9 27 0 66 -5 85 -11 19 -6 53 -12 75
-15 68 -7 186 -26 295 -47 70 -14 148 -27 265 -44 57 -8 55 -8 75 -16 8 -4 38
-9 65 -12 56 -6 82 -10 140 -24 22 -5 69 -12 105 -16 36 -4 78 -14 93 -22 16
-8 34 -12 41 -10 7 3 32 1 57 -5 24 -5 64 -11 89 -13 60 -4 170 -24 195 -35
11 -5 57 -12 103 -15 45 -4 82 -11 82 -16 0 -4 6 -6 14 -3 8 3 59 -4 113 -16
54 -12 121 -23 148 -26 67 -6 238 -34 248 -41 9 -5 25 -8 107 -18 30 -4 78
-14 106 -21 29 -8 56 -14 60 -12 11 3 163 -22 184 -30 8 -3 24 -7 35 -8 121
-16 185 -28 185 -35 0 -5 21 -9 48 -9 69 0 152 -12 147 -20 -9 -15 46 -21 63
-8 10 9 13 9 9 1 -8 -13 -9 -12 192 -37 62 -8 116 -18 120 -22 3 -5 17 -9 31
-8 14 0 41 -4 60 -8 19 -5 55 -11 79 -13 24 -3 71 -10 105 -16 33 -6 83 -14
109 -18 27 -4 52 -12 55 -18 4 -6 42 -13 85 -15 72 -4 77 -3 77 15 0 20 -87
169 -102 175 -4 2 -8 12 -8 23 0 10 -4 19 -10 19 -5 0 -17 14 -26 32 -9 18
-22 38 -29 45 -7 7 -34 49 -61 95 -26 45 -52 88 -58 95 -26 29 -36 42 -36 47
0 3 -30 52 -66 108 -37 57 -77 119 -89 138 -13 19 -52 80 -87 135 -36 55 -75
118 -88 141 -23 40 -23 41 -4 67 27 37 56 46 161 49 69 2 93 6 93 16 0 9 7 11
21 7 13 -4 25 -2 29 5 5 8 35 15 72 17 34 2 77 8 93 13 17 4 53 11 80 15 28 4
54 10 60 13 5 3 23 7 40 9 16 1 48 7 70 13 22 5 56 12 75 14 19 2 42 6 50 9
20 8 67 15 108 16 18 1 31 4 29 9 -6 8 19 11 108 13 40 2 53 5 40 10 -18 7
-17 8 5 8 14 1 79 12 145 25 199 39 252 48 290 48 19 0 35 4 35 9 0 5 13 9 29
9 16 0 59 7 97 15 80 17 361 70 449 84 192 32 408 73 427 80 13 5 43 28 68 51
25 23 101 95 170 159 69 63 152 141 185 172 63 58 189 176 315 294 42 38 141
131 220 206 80 75 159 148 175 162 23 19 26 27 15 30 -8 3 -91 15 -185 27 -93
12 -249 32 -345 46 -217 30 -316 43 -700 94 -168 23 -433 59 -590 80 -157 21
-339 46 -405 55 -66 8 -217 29 -335 45 -425 58 -598 81 -750 101 -85 10 -270
35 -410 54 -613 84 -703 96 -845 115 -82 10 -235 31 -339 45 -104 14 -190 24
-192 22 -3 -2 3 -35 11 -73 25 -106 500 -2003 535 -2133 33 -124 35 -153 7
-157 -26 -3 -41 36 -83 216 -37 159 -130 532 -326 1300 -206 810 -205 805
-219 802 -8 -1 -27 -17 -43 -35 -26 -29 -292 -306 -547 -572 -53 -55 -111
-116 -129 -135 -18 -19 -117 -123 -219 -230 -460 -480 -990 -1037 -1308 -1376
-116 -122 -160 -163 -181 -166 -61 -9 -48 7 308 377 63 66 156 163 205 215
286 301 539 566 615 645 47 50 126 133 175 185 50 52 176 185 280 295 105 110
231 243 280 295 49 52 128 135 175 185 188 198 277 292 310 328 l35 38 -160
-3 c-88 -1 -333 -6 -545 -10z"/>
<path d="M25588 9953 c28 -2 76 -2 105 0 28 2 5 3 -53 3 -58 0 -81 -1 -52 -3z"/>
<path d="M24075 9855 c-209 -24 -607 -69 -885 -99 -278 -31 -541 -61 -585 -66
-87 -11 -2170 -243 -2379 -265 -71 -8 -133 -18 -137 -22 -4 -4 -73 -174 -153
-378 -81 -203 -187 -471 -236 -595 -49 -124 -114 -290 -145 -370 -66 -169
-115 -294 -215 -550 -81 -207 -146 -373 -195 -500 -18 -47 -51 -132 -73 -190
-107 -275 -121 -314 -117 -318 2 -2 62 31 132 75 70 44 220 136 333 205 197
120 598 365 1050 643 118 73 247 151 285 174 39 23 99 61 135 83 61 39 309
191 430 264 30 19 120 74 200 123 80 49 188 115 240 147 106 64 416 254 470
289 19 12 159 98 310 190 151 93 370 227 485 298 391 242 460 284 640 394 99
61 216 133 260 160 334 207 528 325 540 329 18 7 20 24 3 23 -7 -1 -184 -21
-393 -44z"/>
<path d="M24385 9780 c-77 -49 -196 -123 -265 -165 -69 -42 -201 -124 -295
-182 -93 -58 -334 -206 -535 -330 -201 -124 -457 -283 -570 -353 -113 -70
-302 -186 -420 -259 -118 -73 -231 -143 -250 -156 -19 -12 -93 -58 -165 -102
-71 -44 -224 -138 -340 -210 -115 -71 -307 -190 -425 -263 -525 -325 -588
-364 -635 -395 -27 -17 -84 -52 -125 -77 -41 -25 -194 -120 -340 -210 -146
-90 -344 -213 -440 -272 -205 -128 -227 -141 -300 -188 -30 -19 -102 -63 -160
-98 -92 -56 -124 -79 -117 -86 1 -1 70 -9 152 -18 83 -9 191 -21 240 -26 50
-6 176 -19 280 -30 105 -11 251 -27 325 -35 238 -26 801 -84 930 -96 234 -22
270 -20 270 11 0 35 32 50 98 45 34 -2 62 -1 62 4 0 13 128 53 185 57 27 2 51
8 53 13 2 5 11 7 21 4 11 -3 21 2 24 11 4 11 18 14 49 12 24 -1 49 2 56 7 8 6
12 5 12 -4 1 -9 8 -6 19 9 11 12 29 22 42 22 21 0 21 -1 6 -12 -15 -11 -8 -12
38 -10 44 3 55 7 55 21 0 22 32 51 58 51 4 0 1 4 -6 9 -11 7 -10 9 3 14 9 4
14 3 11 -2 -3 -5 17 -8 44 -7 28 0 50 4 50 7 0 7 135 69 150 69 6 0 10 -7 10
-15 0 -8 8 -15 18 -15 12 0 14 2 4 8 -9 6 -5 12 13 20 36 17 62 15 73 -4 6
-11 11 -13 16 -5 4 6 14 11 22 11 8 0 12 -4 9 -10 -7 -12 5 -13 23 -2 7 5 10
16 6 25 -4 12 -1 17 14 17 11 0 22 7 26 15 3 8 15 15 27 15 11 0 35 6 52 14
36 16 88 30 100 27 5 -1 24 3 43 8 21 6 34 6 34 0 0 -5 12 -6 28 -3 44 11 82
33 82 49 0 9 10 15 25 15 14 0 25 -4 25 -10 0 -5 10 -9 23 -9 18 1 19 2 4 6
-17 4 -17 6 3 20 15 10 41 15 74 14 47 -1 49 0 31 13 -19 15 -18 15 15 17 19
0 52 1 74 1 29 0 39 4 43 19 4 14 14 18 47 18 56 -1 147 16 155 29 10 17 93
32 137 26 23 -3 34 -2 27 3 -23 16 4 34 62 42 32 5 67 6 77 3 11 -2 26 4 37
16 13 16 42 26 106 37 49 8 97 23 107 32 10 9 18 11 18 5 0 -6 -6 -13 -12 -15
-10 -4 -10 -6 0 -6 7 -1 15 6 18 14 4 8 16 15 28 15 13 0 26 3 29 7 4 3 19 7
34 8 39 3 73 13 87 24 6 5 31 14 56 19 148 33 200 47 200 54 0 5 9 4 20 -2 11
-6 20 -7 20 -2 0 5 26 17 58 26 31 10 71 22 87 28 17 5 52 17 78 25 57 17 71
43 63 113 -3 25 -8 106 -11 180 -3 74 -10 209 -15 300 -6 91 -19 345 -30 565
-12 220 -34 643 -50 941 -17 297 -30 546 -30 552 0 22 -24 10 -165 -78z m-705
-2830 c0 -5 -10 -10 -22 -10 -19 0 -20 2 -8 10 19 13 30 13 30 0z"/>
<path d="M5601 9503 c-68 -86 -179 -248 -173 -254 4 -4 209 -9 456 -12 247 -4
445 -3 440 2 -5 5 -47 25 -94 46 -47 21 -118 53 -158 71 -41 19 -75 34 -77 34
-2 0 -32 13 -67 29 -150 68 -181 81 -192 81 -6 0 -28 9 -49 20 -20 11 -41 20
-46 20 -6 0 -24 -17 -40 -37z"/>
<path d="M5495 9467 c-22 -18 -131 -103 -243 -191 -111 -87 -201 -160 -199
-163 2 -2 68 25 145 59 l141 63 101 125 c84 105 111 143 98 139 -2 0 -21 -15
-43 -32z"/>
<path d="M19630 9355 c-206 -24 -699 -80 -1095 -124 -396 -45 -916 -104 -1155
-131 -776 -88 -1139 -130 -1450 -165 -168 -19 -444 -51 -615 -70 -293 -34
-655 -75 -955 -109 -74 -9 -155 -18 -180 -21 -25 -3 -130 -14 -235 -26 -104
-11 -201 -24 -215 -28 -24 -9 -24 -9 15 -26 22 -9 69 -29 105 -45 36 -16 151
-66 255 -111 105 -45 208 -90 230 -99 22 -10 121 -53 220 -95 99 -42 204 -88
233 -101 29 -13 54 -24 57 -24 2 0 32 -13 67 -29 35 -16 124 -54 198 -86 74
-31 153 -65 175 -75 51 -23 290 -126 560 -242 116 -49 224 -96 240 -103 110
-50 155 -69 195 -85 25 -10 70 -29 100 -43 31 -14 80 -35 110 -47 30 -12 79
-33 110 -47 100 -45 113 -51 330 -144 294 -126 439 -188 475 -204 84 -38 357
-155 360 -155 2 0 32 -13 67 -29 35 -16 108 -48 163 -71 127 -54 184 -78 544
-234 161 -70 299 -125 306 -122 7 2 16 20 20 38 4 18 11 38 15 43 4 6 18 39
32 75 44 113 129 324 138 345 5 11 39 92 74 180 35 88 130 324 211 525 291
720 685 1710 685 1720 0 5 -3 10 -7 9 -5 -1 -177 -20 -383 -44z"/>
<path d="M34002 9183 c-22 -49 -63 -135 -90 -193 -27 -58 -63 -134 -80 -170
-17 -36 -71 -152 -120 -257 -50 -106 -86 -195 -81 -198 7 -5 394 45 477 61
l22 4 0 388 0 387 -40 33 c-21 17 -41 32 -43 32 -2 0 -22 -39 -45 -87z"/>
<path d="M33943 9203 c-11 -10 -80 -74 -154 -143 -159 -149 -259 -241 -275
-255 -6 -5 -49 -46 -96 -90 -86 -82 -283 -266 -418 -390 -41 -38 -77 -74 -79
-79 -5 -12 43 -5 289 39 113 21 235 43 272 49 37 7 69 14 71 17 3 5 194 398
317 654 82 170 102 215 96 215 -1 0 -12 -8 -23 -17z"/>
<path d="M5385 9192 c-9 -6 -144 -236 -247 -422 -14 -25 -60 -106 -103 -180
-119 -206 -140 -244 -148 -260 -4 -8 -17 -31 -28 -50 -12 -19 -34 -57 -49 -85
-32 -57 -214 -378 -270 -475 -32 -55 -153 -268 -540 -950 -26 -47 -57 -102
-69 -122 -37 -66 -61 -109 -144 -253 -44 -77 -93 -164 -109 -194 -17 -30 -44
-78 -62 -105 -17 -28 -44 -76 -61 -106 -31 -59 -202 -359 -241 -425 -39 -65
-58 -104 -52 -110 4 -5 93 37 138 65 16 9 121 69 205 116 78 43 106 59 163 93
29 17 55 31 57 31 2 0 42 22 87 49 46 27 108 62 138 79 110 60 296 165 320
181 14 9 54 32 90 51 36 18 139 76 230 128 91 53 179 102 195 110 23 12 373
210 520 294 84 48 223 126 235 131 8 4 31 17 50 29 19 11 60 35 90 51 30 17
129 73 219 124 90 51 166 93 168 93 3 0 17 8 31 18 15 11 52 32 82 49 48 26
109 60 350 196 81 46 184 104 245 137 33 18 65 36 70 40 10 7 39 24 165 93 30
17 222 125 425 240 356 202 629 355 745 420 30 16 60 33 65 37 6 4 66 39 135
77 69 39 143 80 165 93 21 12 91 51 155 87 63 36 149 85 190 108 41 23 128 72
193 109 64 36 170 96 235 132 64 37 146 83 182 104 36 20 97 54 135 75 39 20
74 41 80 46 5 5 -45 10 -120 10 -72 1 -155 3 -185 4 -30 1 -453 5 -940 9 -487
4 -988 9 -1115 11 -126 2 -630 7 -1120 10 -489 3 -901 8 -915 11 -14 2 -30 1
-35 -4z"/>
<path d="M5165 9106 c-106 -49 -130 -60 -265 -119 -69 -30 -165 -74 -213 -96
-49 -23 -90 -41 -93 -41 -3 0 -29 -11 -57 -24 -50 -23 -587 -263 -787 -351
-52 -23 -117 -52 -145 -65 -134 -61 -176 -80 -245 -110 -41 -18 -102 -45 -135
-60 -33 -15 -109 -49 -170 -75 -60 -25 -136 -59 -170 -75 -33 -15 -103 -47
-155 -70 -52 -23 -124 -55 -160 -72 -36 -17 -85 -38 -110 -48 -25 -10 -89 -39
-143 -64 -54 -25 -100 -46 -103 -46 -3 0 -33 -13 -67 -29 -100 -47 -195 -90
-302 -136 -55 -23 -149 -65 -210 -93 -60 -28 -249 -112 -420 -187 -170 -76
-314 -141 -320 -144 -5 -4 -26 -14 -45 -21 -34 -13 -71 -29 -198 -86 -31 -14
-97 -44 -147 -66 -49 -22 -118 -54 -153 -69 -35 -16 -65 -29 -68 -29 -2 0 -43
-18 -90 -40 -47 -22 -109 -50 -139 -61 l-55 -20 0 -760 0 -759 93 0 c50 0 369
7 707 15 338 8 759 17 935 20 176 3 374 7 440 10 66 3 282 7 480 10 198 3 374
9 390 12 31 5 65 29 65 45 0 4 15 32 33 61 53 82 107 174 107 182 0 3 14 26
30 50 17 24 30 46 30 48 0 3 20 40 45 81 25 42 45 78 45 80 0 2 28 52 63 112
270 465 293 505 333 579 14 28 32 57 39 65 7 8 26 40 42 70 17 30 62 111 102
179 39 68 71 125 71 128 0 2 13 23 29 46 15 23 40 65 55 92 14 28 31 57 36 65
5 8 28 47 50 87 51 92 66 119 130 228 103 175 160 278 160 286 0 5 5 9 10 9 6
0 10 4 10 8 0 8 54 104 178 317 19 33 46 80 60 105 13 25 46 81 72 125 26 44
56 96 67 115 10 19 56 100 101 180 94 164 83 145 154 266 66 114 87 152 88
161 3 16 -18 10 -85 -21z"/>
<path d="M10007 9134 c-2 -5 -1 -76 3 -159 5 -82 11 -220 14 -305 6 -139 28
-603 56 -1155 5 -110 14 -301 20 -425 5 -124 12 -263 15 -310 3 -47 10 -184
15 -305 6 -121 12 -260 15 -310 3 -49 10 -182 15 -295 6 -113 15 -276 20 -364
10 -171 6 -191 -38 -203 -41 -10 -67 27 -69 100 -6 238 -14 463 -18 522 -3 39
-7 153 -10 255 -3 102 -8 217 -10 255 -3 39 -12 250 -20 470 -8 220 -17 436
-20 480 -2 44 -7 161 -10 260 -3 99 -8 218 -10 265 -3 47 -14 308 -25 580 -19
470 -28 630 -36 630 -2 0 -25 -13 -51 -28 -27 -16 -95 -55 -153 -87 -58 -32
-161 -91 -230 -130 -103 -60 -317 -180 -490 -278 -19 -11 -80 -45 -135 -77
-113 -65 -147 -84 -260 -147 -44 -24 -87 -48 -95 -53 -19 -12 -171 -99 -230
-132 -105 -59 -435 -246 -560 -318 -74 -43 -207 -118 -295 -167 -88 -49 -304
-172 -480 -273 -176 -101 -345 -197 -375 -213 -30 -17 -72 -41 -92 -54 -21
-13 -39 -23 -42 -23 -2 0 -75 -40 -161 -90 -86 -49 -161 -90 -166 -90 -5 0 -9
-4 -9 -10 0 -5 -4 -10 -9 -10 -5 0 -80 -40 -166 -90 -86 -49 -159 -90 -160
-90 -2 0 -25 -13 -52 -29 -67 -41 -539 -310 -588 -335 -22 -12 -42 -23 -45
-26 -3 -3 -27 -16 -55 -30 -27 -14 -52 -28 -55 -31 -3 -3 -21 -14 -40 -24 -19
-10 -60 -32 -90 -50 -142 -83 -374 -215 -480 -273 -36 -19 -72 -41 -81 -48 -8
-8 -18 -14 -21 -14 -3 0 -35 -16 -70 -36 -34 -21 -97 -56 -138 -79 -123 -69
-141 -79 -245 -140 -55 -32 -122 -70 -150 -85 -27 -14 -61 -33 -75 -42 -14 -9
-54 -33 -90 -52 -36 -20 -95 -53 -133 -73 -37 -21 -67 -42 -67 -48 0 -7 50
-19 120 -30 66 -10 120 -21 120 -25 0 -4 18 -13 40 -20 32 -11 40 -18 38 -34
-3 -18 -11 -21 -56 -24 -29 -2 -105 5 -170 14 -125 19 -234 24 -269 12 -12 -4
-76 -49 -143 -100 -68 -51 -135 -102 -149 -113 -15 -11 -48 -40 -74 -64 -26
-24 -58 -51 -71 -60 -13 -9 -59 -43 -102 -76 -122 -94 -218 -165 -224 -165 -3
0 -16 -10 -30 -22 -39 -35 -98 -78 -107 -78 -5 0 -18 -8 -29 -18 -15 -15 -74
-42 -90 -42 -2 0 -4 11 -4 24 0 14 12 37 28 53 15 16 54 60 87 97 55 62 240
211 347 278 58 37 197 135 226 159 12 10 25 19 28 19 7 0 71 48 104 78 l25 22
-30 0 c-17 0 -74 -10 -128 -22 -91 -20 -99 -20 -115 -5 -15 16 -15 17 6 17 27
0 41 28 21 41 -8 5 -57 7 -109 4 -52 -3 -304 -10 -560 -15 -517 -11 -797 -18
-1065 -25 -99 -3 -310 -8 -470 -11 -159 -4 -301 -8 -315 -9 -14 -1 -55 -3 -92
-4 l-68 -1 0 -2600 0 -2600 1005 0 c663 0 1005 3 1005 10 0 14 27 12 33 -2 4
-10 8 -9 16 2 10 13 12 13 21 0 8 -13 10 -13 10 2 0 9 -5 18 -12 20 -6 2 4 15
23 28 19 14 45 37 59 52 13 15 30 28 36 28 6 0 17 6 24 14 6 8 17 13 24 10 6
-2 22 9 33 25 12 16 51 45 86 65 36 20 67 43 71 51 6 17 46 21 46 5 0 -20 20
-9 26 14 3 13 14 26 25 29 12 3 19 14 19 31 0 23 2 25 24 16 18 -7 28 -5 38 7
7 9 12 19 10 22 -2 3 5 8 15 10 27 5 63 32 63 47 0 8 7 14 15 14 9 0 18 7 21
15 4 9 14 14 23 13 10 -2 17 5 19 20 2 14 9 22 16 19 7 -3 27 8 46 24 18 16
38 29 45 29 17 0 67 59 60 71 -4 5 5 21 19 36 15 15 26 33 26 39 0 20 100 90
122 86 4 -1 22 17 40 41 18 23 44 55 58 70 32 37 70 107 70 130 0 11 8 31 19
45 10 15 24 44 30 65 7 20 17 37 22 37 5 0 9 7 9 15 0 9 9 35 20 57 11 23 20
52 20 65 0 14 6 23 15 23 8 0 15 9 15 20 0 22 31 93 43 98 4 2 7 11 7 20 0 18
22 85 31 92 5 4 17 32 19 45 1 2 16 33 34 67 18 35 39 84 46 111 8 26 18 47
22 47 4 0 8 4 8 10 0 10 105 250 149 340 15 30 33 75 41 100 7 25 20 52 27 61
7 8 13 21 13 28 0 14 68 160 83 180 6 7 13 25 15 39 2 15 7 29 12 32 5 3 12
19 16 35 4 17 25 64 46 106 23 45 36 83 32 92 -3 10 -2 17 2 17 5 0 15 15 23
32 8 18 29 66 48 106 18 39 33 79 33 87 0 8 5 15 10 15 6 0 10 7 10 15 0 8 4
23 10 33 24 43 90 193 90 205 0 7 4 17 8 23 5 5 21 41 37 79 15 39 39 95 52
125 14 30 31 69 38 85 28 64 40 90 45 95 3 3 11 23 19 45 13 41 22 61 89 205
21 47 45 101 52 120 14 39 72 165 100 220 9 20 21 50 25 68 3 18 11 32 16 32
5 0 9 5 9 11 0 16 61 153 72 160 5 3 8 10 7 15 -1 5 0 16 3 24 10 26 19 55 19
60 0 3 6 12 14 20 7 8 19 34 26 58 7 23 16 42 21 42 4 0 8 6 8 14 0 13 13 43
77 186 14 30 29 64 33 75 4 11 26 59 49 106 23 48 41 93 41 100 0 8 7 23 15
33 8 11 15 27 15 35 0 8 23 61 50 118 28 56 50 107 50 111 0 5 12 31 26 58 15
27 32 67 39 89 7 22 29 78 49 125 20 46 36 93 36 104 0 10 10 46 22 78 32 88
66 111 177 116 l87 4 168 -83 c92 -45 170 -88 173 -96 3 -7 9 -10 14 -7 5 3
21 -4 35 -15 15 -12 32 -21 38 -21 6 0 22 -10 36 -22 14 -13 39 -30 55 -38 17
-8 49 -27 71 -42 23 -16 47 -28 52 -28 15 0 116 -52 120 -62 2 -4 8 -8 14 -8
5 0 55 -22 110 -50 55 -27 107 -50 114 -50 8 0 14 -4 14 -10 0 -5 6 -10 14
-10 8 0 16 -7 20 -15 3 -8 15 -15 27 -15 11 0 35 -11 51 -26 17 -14 37 -23 44
-20 7 3 16 1 19 -4 4 -6 15 -10 26 -10 10 0 19 -4 19 -10 0 -5 9 -10 20 -10
11 0 20 -4 20 -10 0 -5 8 -10 18 -10 10 0 27 -8 38 -18 10 -10 41 -27 67 -38
26 -10 57 -27 67 -36 11 -10 22 -18 26 -18 11 0 138 -63 144 -71 3 -4 19 -11
35 -15 17 -4 41 -14 55 -23 14 -10 45 -26 70 -36 25 -10 53 -25 62 -33 10 -8
29 -14 43 -14 14 0 25 -4 25 -9 0 -5 5 -9 10 -9 6 0 21 -9 33 -20 12 -11 27
-18 33 -16 6 2 24 -9 40 -25 19 -20 36 -28 55 -27 16 1 41 -9 62 -25 20 -15
40 -27 45 -27 16 0 72 -31 72 -41 0 -5 10 -9 23 -9 12 0 32 -7 43 -15 12 -8
24 -11 28 -8 3 3 6 1 6 -5 0 -10 95 -62 113 -62 3 0 32 -16 64 -35 31 -19 70
-37 87 -41 16 -3 38 -16 49 -28 10 -11 15 -14 11 -6 -6 11 -2 10 13 -3 11 -9
29 -17 40 -17 11 0 30 -11 43 -25 13 -14 28 -25 33 -25 18 0 87 -34 87 -42 0
-4 9 -8 19 -8 11 0 23 -4 26 -10 3 -5 15 -10 26 -10 10 0 19 -7 19 -15 0 -8 5
-15 10 -15 6 0 10 6 10 13 0 7 3 8 8 2 14 -20 61 -45 84 -45 17 0 19 -3 9 -9
-16 -10 -7 -16 36 -25 17 -4 41 -16 54 -27 12 -10 35 -19 51 -19 15 0 28 -5
28 -10 0 -10 34 -27 54 -28 5 0 12 -4 15 -9 6 -8 31 -23 106 -59 17 -8 37 -19
45 -24 30 -19 84 -41 106 -42 14 -2 20 -7 16 -16 -3 -10 1 -13 14 -10 10 2 29
-5 42 -16 12 -11 32 -21 45 -23 12 -2 27 -9 32 -16 13 -15 86 -52 102 -50 7 0
10 -3 7 -8 -3 -5 8 -9 25 -9 16 0 33 -5 36 -10 4 -6 11 -8 16 -5 5 4 9 -2 9
-12 1 -13 35 -34 126 -78 69 -33 133 -62 142 -65 10 -3 29 -13 44 -23 14 -10
32 -17 40 -16 31 4 47 -2 42 -15 -4 -9 6 -18 30 -26 20 -6 36 -16 36 -21 0 -6
4 -7 10 -4 10 6 54 -18 82 -46 9 -9 42 -20 72 -23 31 -4 56 -12 56 -17 0 -5 6
-9 13 -9 7 0 29 -14 50 -31 31 -26 37 -37 37 -70 0 -95 -96 -106 -233 -26 -54
32 -116 94 -117 117 0 13 -1 13 -11 0 -8 -11 -12 -12 -16 -2 -2 6 -11 12 -19
12 -8 0 -17 7 -20 15 -8 20 -72 56 -105 58 -16 1 -29 5 -29 9 0 3 -13 9 -29
13 -16 3 -37 15 -46 25 -10 11 -33 24 -51 30 -19 7 -34 16 -34 21 0 5 -15 9
-34 9 -25 0 -35 5 -39 20 -3 13 -14 20 -30 20 -14 0 -29 5 -32 10 -4 6 -11 8
-16 5 -5 -4 -9 -2 -9 2 0 12 -53 42 -80 46 -12 2 -25 8 -28 13 -4 5 -27 18
-52 29 -25 11 -54 28 -65 38 -10 9 -25 15 -32 13 -7 -3 -15 -1 -18 4 -4 6 -15
10 -26 10 -10 0 -19 5 -19 10 0 6 -5 10 -11 10 -7 0 -36 16 -66 36 -29 19 -57
33 -62 30 -5 -3 -14 1 -21 9 -7 8 -21 15 -31 15 -11 0 -19 4 -19 9 0 5 -13 12
-30 16 -16 4 -32 11 -35 16 -4 5 -15 9 -26 9 -10 0 -19 4 -19 10 0 5 -12 13
-27 16 -16 4 -35 12 -43 19 -15 13 -168 95 -173 93 -6 -4 -85 38 -104 55 -13
12 -29 17 -39 13 -12 -4 -15 -2 -11 9 5 10 -5 18 -36 26 -68 18 -100 31 -126
51 -13 10 -32 18 -43 18 -11 0 -17 4 -13 9 3 6 -4 8 -15 6 -12 -2 -24 3 -30
15 -6 10 -22 26 -38 34 -74 40 -118 59 -132 57 -8 -1 -27 10 -43 23 -15 13
-47 29 -71 35 -25 6 -50 17 -58 24 -7 7 -25 18 -40 24 -16 7 -28 17 -28 23 0
5 -9 10 -20 10 -23 0 -97 37 -124 62 -11 10 -31 17 -44 16 -16 -2 -28 4 -36
17 -6 11 -12 22 -13 24 -2 2 -9 -2 -17 -8 -10 -8 -16 -9 -21 -1 -3 5 -3 10 2
10 9 0 -52 29 -117 55 -47 20 -73 42 -64 56 3 5 0 9 -5 9 -6 0 -11 -6 -11 -12
0 -8 -3 -9 -8 -3 -4 6 -20 11 -36 12 -16 1 -35 11 -42 22 -9 12 -21 17 -34 14
-11 -3 -20 -1 -20 5 0 5 -8 12 -17 16 -18 6 -54 27 -63 37 -3 3 -26 13 -52 23
-27 10 -48 21 -48 26 0 4 -16 11 -35 14 -20 4 -41 16 -48 26 -6 11 -22 20 -35
20 -12 0 -25 7 -28 15 -4 8 -10 15 -14 15 -5 0 -37 13 -72 29 -34 16 -66 27
-70 25 -5 -3 -8 0 -8 5 0 6 -7 11 -15 11 -8 0 -15 5 -15 11 0 6 -7 8 -15 5 -9
-3 -18 1 -21 9 -4 8 -12 15 -20 15 -8 0 -14 4 -14 9 0 4 -20 14 -45 21 -25 7
-45 16 -45 20 0 4 -13 10 -29 13 -16 3 -36 13 -44 22 -9 8 -22 15 -30 15 -27
0 -47 12 -47 27 0 8 -5 11 -11 8 -13 -8 -71 14 -64 25 3 4 -2 11 -11 14 -9 4
-13 2 -8 -5 3 -6 -6 -3 -22 7 -16 10 -33 24 -37 31 -4 7 -19 13 -32 13 -14 0
-25 4 -25 8 0 4 -17 14 -37 21 -90 30 -142 57 -152 79 -10 20 -30 27 -73 23
-9 -1 -20 3 -24 10 -4 8 -3 9 4 5 7 -4 12 -3 12 2 0 4 -23 15 -51 22 -28 8
-53 20 -56 26 -4 11 -58 29 -76 25 -5 -1 -6 2 -3 7 9 15 -62 42 -94 35 -28 -5
-56 -34 -44 -45 2 -3 -2 -11 -11 -18 -8 -7 -15 -19 -15 -26 0 -8 -4 -22 -10
-32 -5 -9 -30 -69 -56 -132 -25 -63 -59 -143 -75 -178 -16 -35 -29 -66 -29
-70 0 -12 -62 -157 -70 -162 -4 -3 -10 -17 -14 -33 -3 -15 -18 -52 -31 -82
-14 -29 -25 -57 -25 -62 -1 -4 -9 -26 -20 -48 -11 -22 -19 -44 -20 -48 0 -5
-16 -40 -35 -78 -19 -39 -35 -78 -35 -88 0 -9 -4 -21 -8 -26 -15 -17 -112
-261 -112 -280 0 -7 -7 -15 -15 -19 -8 -3 -15 -13 -15 -23 0 -10 -7 -31 -15
-47 -8 -15 -15 -35 -15 -42 0 -8 -4 -14 -9 -14 -5 0 -13 -15 -16 -33 -4 -17
-11 -36 -14 -42 -4 -5 -16 -32 -25 -60 -10 -27 -29 -68 -41 -90 -12 -22 -26
-55 -30 -72 -3 -18 -11 -35 -16 -38 -5 -4 -9 -13 -9 -21 0 -8 -11 -39 -24 -67
-13 -29 -30 -70 -37 -92 -8 -22 -17 -43 -22 -46 -4 -3 -18 -36 -31 -73 -13
-38 -29 -73 -35 -79 -6 -6 -11 -16 -11 -21 0 -16 -60 -159 -71 -170 -5 -6 -9
-20 -9 -32 0 -13 -6 -29 -12 -36 -7 -7 -19 -31 -26 -53 -14 -41 -34 -88 -59
-137 -7 -14 -13 -31 -13 -37 0 -7 -16 -49 -36 -94 -50 -112 -58 -132 -89 -207
-15 -36 -35 -84 -46 -107 -10 -24 -19 -47 -19 -51 0 -5 -13 -35 -29 -68 -15
-32 -41 -90 -56 -129 -15 -38 -34 -89 -43 -112 -10 -24 -20 -43 -24 -43 -5 0
-8 -7 -8 -15 0 -15 -16 -54 -56 -140 -13 -28 -24 -56 -24 -64 0 -7 -14 -42
-31 -78 -17 -36 -32 -71 -33 -77 -1 -6 -13 -36 -28 -66 -14 -30 -34 -77 -43
-105 -9 -27 -30 -74 -46 -104 -16 -30 -29 -59 -29 -64 0 -5 -6 -23 -14 -40
-27 -63 -56 -140 -56 -150 0 -6 -8 -19 -17 -29 -9 -10 -17 -26 -18 -36 -1 -9
-9 -31 -18 -49 -9 -18 -17 -36 -17 -42 0 -5 -13 -38 -30 -73 -16 -35 -34 -76
-39 -91 -6 -15 -15 -27 -20 -27 -5 0 -7 -9 -4 -19 3 -12 -4 -28 -17 -41 -15
-15 -20 -29 -16 -45 4 -14 -1 -30 -13 -44 -23 -26 -71 -170 -71 -211 0 -34
-68 -152 -111 -192 -16 -15 -29 -24 -29 -20 0 4 -5 0 -10 -9 -5 -9 -41 -26
-79 -39 -39 -12 -81 -34 -98 -50 -15 -15 -43 -31 -60 -34 -18 -4 -33 -12 -33
-17 0 -5 -5 -9 -10 -9 -6 0 -33 -16 -60 -35 -27 -19 -54 -35 -60 -35 -6 0 -16
-11 -22 -25 -6 -15 -23 -28 -37 -31 -35 -7 -56 -19 -56 -32 0 -18 -16 -27 -24
-13 -10 16 -31 6 -31 -14 0 -12 -74 -55 -96 -55 -5 0 -14 -10 -19 -22 -6 -14
-17 -22 -28 -20 -15 3 -17 -1 -13 -16 10 -30 -20 -54 -55 -47 -18 4 -29 2 -29
-4 0 -6 -3 -10 -8 -10 -20 3 -31 -3 -37 -22 -4 -13 -12 -18 -21 -15 -8 3 -12
2 -9 -3 3 -5 -3 -12 -14 -16 -10 -3 -26 -14 -36 -25 -10 -11 -29 -20 -43 -20
-22 0 -24 -3 -18 -31 3 -17 1 -39 -4 -50 -11 -19 19 -19 1830 -19 l1841 0 32
23 c17 12 38 28 45 34 7 7 22 13 33 13 10 0 19 4 19 10 0 5 17 19 38 30 49 28
101 63 134 94 15 13 41 27 57 31 18 4 31 13 31 22 0 8 9 17 20 20 11 3 20 10
20 16 0 6 3 8 6 4 9 -9 66 22 59 33 -3 4 8 11 25 15 16 4 37 16 45 28 9 12 19
22 23 22 16 0 125 60 129 72 3 7 13 13 23 13 11 0 21 4 24 9 4 5 29 12 58 16
28 4 58 14 66 21 7 8 25 14 40 14 15 0 61 11 103 24 45 15 125 29 199 36 69 6
127 12 130 13 3 0 39 -7 80 -16 76 -18 116 -33 181 -68 20 -10 48 -19 61 -19
14 0 33 -9 43 -20 10 -11 23 -20 30 -20 27 0 96 -37 193 -102 39 -27 75 -48
80 -48 5 0 15 -20 22 -44 13 -48 51 -92 69 -81 6 3 14 0 17 -8 3 -8 23 -20 45
-27 21 -7 44 -19 50 -27 6 -7 20 -13 30 -13 10 0 21 -5 25 -11 3 -6 15 -8 26
-6 13 4 18 1 15 -7 -5 -13 31 -36 57 -36 8 0 19 -7 26 -15 7 -8 18 -14 24 -14
12 2 41 -7 68 -22 11 -5 1509 -9 3833 -9 l3815 0 0 23 c0 13 9 32 20 42 11 10
20 22 20 27 0 10 44 105 60 128 6 8 24 45 40 83 17 37 34 67 39 67 5 0 12 11
15 25 3 13 20 44 36 69 17 24 30 51 30 59 0 9 6 20 14 24 7 4 19 26 26 48 7
22 24 58 38 80 14 22 35 64 47 94 13 31 25 48 28 40 3 -8 8 0 12 19 4 17 12
32 17 32 5 0 8 5 6 12 -3 7 5 23 16 35 11 13 29 45 41 71 21 47 55 107 74 128
5 7 7 15 4 18 -4 3 -2 6 4 6 6 0 16 20 23 45 7 25 21 50 31 56 11 5 19 21 19
34 0 13 6 28 13 32 7 4 23 28 35 53 22 45 43 81 52 90 3 3 6 12 8 21 1 10 20
50 42 89 22 40 40 76 40 80 0 4 11 19 25 34 14 15 25 33 25 41 0 7 16 42 36
77 20 34 40 72 45 83 5 11 13 27 19 35 5 8 14 26 20 40 5 14 14 32 18 40 20
35 43 78 68 130 15 30 36 66 46 79 15 19 17 34 12 67 -3 23 -1 57 5 76 6 18
20 65 31 105 11 41 28 77 38 82 15 9 15 12 2 20 -12 8 -12 13 -2 23 9 9 12 9
12 0 0 -7 5 -12 11 -12 5 0 7 5 4 10 -3 6 26 42 65 82 39 39 78 87 87 105 8
18 21 33 27 33 23 0 86 85 86 115 0 8 4 15 8 15 11 0 52 74 52 93 0 9 7 20 16
25 9 5 16 12 15 15 -1 11 10 38 37 97 14 30 25 58 24 63 -1 4 2 7 8 7 5 0 10
9 10 20 0 10 6 23 13 27 24 15 47 57 47 88 0 19 7 35 20 43 11 7 20 19 20 27
0 14 10 37 32 75 5 8 11 23 14 33 4 9 10 17 15 17 5 0 9 12 9 28 0 15 7 38 14
52 8 14 44 85 80 158 36 72 71 132 77 132 5 0 8 4 5 9 -9 14 27 101 42 101 7
0 12 6 10 12 -3 18 66 160 86 177 9 7 21 32 27 55 17 62 61 156 71 150 4 -3 8
2 8 11 0 8 11 38 25 65 14 27 25 56 25 64 0 8 3 16 8 18 7 3 18 25 63 125 13
28 27 49 31 47 4 -3 8 4 8 15 0 26 39 101 52 101 6 0 7 7 4 15 -5 14 9 52 25
65 9 8 109 219 109 231 0 5 -11 14 -24 21 -20 9 -28 7 -42 -7 -9 -9 -27 -21
-40 -25 -12 -5 -24 -19 -26 -32 -2 -17 -9 -22 -24 -20 -11 1 -31 -8 -45 -20
-14 -13 -37 -29 -53 -36 -15 -7 -30 -21 -33 -31 -2 -10 -27 -28 -54 -40 -27
-13 -47 -27 -43 -32 3 -5 -2 -9 -10 -9 -19 0 -21 -17 -3 -23 6 -2 4 -3 -6 -1
-10 1 -26 -5 -36 -14 -24 -23 -60 -47 -70 -47 -5 0 -19 -12 -31 -27 -12 -16
-28 -28 -36 -28 -8 0 -14 -9 -14 -20 0 -11 -4 -20 -10 -20 -5 0 -10 5 -10 10
0 18 -18 10 -23 -10 -3 -13 -11 -18 -20 -14 -9 3 -25 0 -37 -6 -18 -10 -21
-18 -16 -42 5 -24 3 -29 -12 -27 -43 4 -59 -2 -71 -27 -7 -15 -17 -24 -25 -21
-20 8 -56 -21 -56 -44 0 -17 -11 -24 -32 -20 -5 0 -8 -4 -8 -9 0 -13 -51 -59
-66 -60 -13 0 -104 -69 -121 -91 -7 -9 -33 -22 -58 -28 -44 -11 -49 -17 -45
-55 1 -10 -3 -15 -8 -12 -6 3 -25 -6 -43 -21 -19 -17 -44 -27 -63 -28 -26 0
-31 -3 -28 -22 2 -17 -1 -21 -12 -17 -9 3 -16 2 -16 -4 0 -5 -10 -12 -21 -15
-16 -4 -20 -11 -16 -26 4 -18 1 -21 -29 -21 -19 0 -34 -4 -34 -10 0 -5 -6 -10
-14 -10 -8 0 -25 -18 -37 -40 -22 -40 -56 -59 -79 -45 -7 4 -14 -2 -17 -14 -3
-12 -12 -21 -19 -21 -8 0 -14 -7 -14 -15 0 -18 -11 -19 -29 -2 -11 10 -12 9
-7 -1 11 -18 -12 -42 -41 -42 -13 0 -26 -8 -30 -17 -4 -10 -12 -24 -19 -30 -7
-7 -14 -17 -16 -23 -1 -5 -24 -10 -50 -11 -38 -2 -51 -7 -64 -26 -8 -14 -13
-31 -10 -38 2 -7 -2 -21 -10 -32 -9 -10 -13 -13 -10 -7 3 7 -4 12 -17 12 -17
0 -28 -13 -47 -50 -13 -26 -29 -47 -35 -44 -7 2 -27 1 -46 -4 -19 -4 -26 -8
-16 -9 24 -1 21 -21 -4 -21 -14 0 -24 -10 -32 -30 -11 -30 -27 -41 -27 -19 0
6 -8 2 -17 -10 -25 -28 -84 -17 -94 19 -5 16 -7 19 -8 8 -1 -10 -6 -18 -11
-18 -6 0 -8 -16 -5 -40 4 -31 2 -38 -10 -34 -7 3 -11 12 -8 20 4 10 0 12 -11
8 -9 -3 -13 -10 -10 -15 3 -5 0 -9 -5 -9 -6 0 -11 -4 -11 -10 0 -5 7 -10 15
-10 21 0 19 -17 -4 -30 -25 -13 -57 -14 -98 -5 -22 5 -33 4 -33 -3 0 -6 7 -9
16 -5 13 5 15 2 7 -13 -5 -10 -9 -28 -9 -39 1 -11 -5 -27 -13 -35 -14 -15 -19
-16 -51 -19 -13 -1 -13 -2 0 -11 13 -9 13 -11 0 -19 -10 -7 -20 -5 -32 5 -9 9
-22 13 -27 9 -6 -3 -11 1 -11 9 0 19 16 21 26 5 4 -8 10 -6 17 6 10 18 -4 35
-30 35 -18 0 -16 17 3 24 8 3 13 10 10 15 -9 14 15 61 31 61 17 0 17 17 1 23
-7 2 -5 3 5 2 9 -2 17 1 17 7 0 5 4 7 9 4 5 -4 11 0 14 6 3 10 7 10 18 1 12
-10 19 -8 34 10 11 12 18 28 17 36 -3 10 3 12 21 7 21 -5 27 0 47 39 24 46 34
54 44 33 5 -10 7 -10 12 0 3 6 15 12 26 12 14 0 18 5 14 15 -3 8 2 19 11 23
10 6 14 17 10 31 -3 13 -1 19 5 14 6 -3 16 1 23 10 16 22 156 117 172 117 7 0
14 5 14 10 3 22 5 26 30 53 15 15 33 27 40 27 8 0 22 7 32 14 14 11 15 16 6
22 -19 11 17 22 76 23 28 1 45 5 39 9 -18 12 -24 41 -10 49 7 5 18 18 25 31 7
14 21 22 37 22 14 0 22 4 19 10 -3 6 -2 10 3 10 5 0 19 9 32 20 12 11 27 17
31 14 5 -3 9 0 9 6 0 7 6 10 14 7 10 -4 12 0 9 14 -6 20 10 30 51 33 13 0 22
4 19 9 -2 4 3 7 11 7 11 0 16 9 16 30 0 17 5 30 13 30 7 0 18 9 25 20 7 11 18
17 27 14 14 -6 50 21 103 78 14 16 32 28 40 28 12 0 12 3 2 15 -9 10 -9 15 -1
15 6 0 11 7 11 15 0 9 9 15 24 15 13 0 29 6 35 14 7 8 19 12 29 10 11 -3 25 8
41 31 13 20 32 35 43 35 28 0 60 20 55 34 -3 7 12 19 34 29 22 10 42 24 45 32
4 8 12 15 20 15 8 0 14 7 14 15 0 8 6 15 13 15 6 0 34 23 61 50 27 28 53 50
58 50 4 0 8 7 8 15 0 8 17 27 38 43 22 15 37 34 35 42 -3 10 0 9 7 -2 17 -28
40 -21 56 17 8 20 19 33 24 30 6 -4 13 1 16 9 3 9 15 16 26 16 14 0 18 5 14
16 -4 12 -2 15 9 10 8 -3 15 -1 15 4 0 6 7 10 15 10 8 0 15 4 15 10 0 5 11 12
25 16 18 4 25 13 25 30 0 17 6 24 19 24 10 0 24 7 31 15 7 8 18 15 25 15 19 0
48 37 35 45 -5 3 -8 11 -4 16 4 6 11 6 19 -1 10 -9 19 -6 34 9 12 12 22 24 23
29 1 4 8 6 15 4 7 -2 13 6 13 18 0 11 7 20 15 20 8 0 15 -4 15 -10 0 -6 8 -2
18 7 10 10 16 24 14 32 -4 10 0 13 16 9 12 -4 20 -3 17 2 -3 4 4 10 15 13 23
6 28 52 8 60 -10 4 -9 8 2 16 15 10 68 56 138 120 20 18 56 44 80 58 23 14 42
29 42 34 0 8 40 32 139 83 20 10 38 22 39 27 2 5 11 9 20 9 27 0 96 27 100 38
6 18 -28 71 -203 322 -162 233 -157 227 -186 213 -13 -7 -42 -19 -64 -26 -52
-18 -532 -200 -610 -232 -33 -13 -98 -38 -145 -55 -91 -34 -122 -46 -301 -115
-64 -24 -231 -87 -370 -140 -140 -52 -263 -99 -274 -104 -25 -11 -209 -82
-329 -126 -50 -18 -192 -72 -316 -120 -124 -47 -255 -97 -292 -110 -36 -13
-81 -30 -100 -38 -41 -19 -229 -97 -243 -101 -10 -3 -27 -10 -100 -40 -22 -10
-101 -40 -175 -67 -74 -28 -148 -56 -165 -64 -33 -16 -254 -102 -295 -116 -14
-4 -68 -24 -120 -44 -52 -20 -120 -44 -150 -55 -30 -10 -80 -28 -110 -40 -30
-12 -66 -24 -80 -27 -14 -4 -27 -9 -30 -13 -3 -4 -32 -10 -65 -13 -37 -3 -50
-2 -35 3 14 4 21 9 15 9 -18 2 303 157 385 186 22 8 53 21 68 29 34 18 98 46
106 46 3 0 29 11 58 24 106 49 309 129 598 237 162 61 340 128 395 149 55 21
199 75 320 120 121 45 229 85 240 90 11 5 88 34 170 65 83 31 166 62 185 70
33 13 782 294 950 356 41 15 190 71 330 124 140 53 306 115 368 138 62 22 111
45 109 51 -2 5 -43 27 -93 48 -153 68 -506 219 -579 250 -38 16 -84 35 -102
43 -33 16 -483 210 -1053 455 -302 130 -578 249 -1000 432 -63 27 -142 61
-175 75 -33 13 -96 40 -140 60 -44 19 -93 41 -110 48 -16 7 -77 33 -135 58
-150 66 -499 216 -867 373 -175 75 -346 149 -381 165 -35 16 -66 29 -68 29 -4
0 -117 48 -269 115 -16 7 -57 25 -89 39 -33 15 -63 23 -66 19 -4 -5 15 -188
41 -408 26 -220 55 -465 64 -545 8 -80 22 -197 30 -260 8 -63 23 -196 35 -295
11 -99 29 -254 40 -345 24 -203 44 -381 65 -565 9 -77 20 -169 25 -205 6 -36
15 -114 20 -175 6 -60 13 -117 15 -125 2 -8 9 -67 15 -130 5 -63 17 -160 25
-215 8 -55 24 -181 36 -280 11 -99 24 -211 30 -250 13 -84 4 -150 -22 -176
-10 -10 -22 -19 -26 -19 -21 0 -55 111 -65 205 -17 183 -49 479 -63 600 -8 66
-21 188 -30 270 -9 83 -25 224 -35 315 -11 91 -29 253 -40 360 -11 107 -25
231 -30 275 -6 44 -15 121 -20 170 -6 50 -31 272 -56 495 -25 223 -49 443 -54
490 -5 47 -21 189 -35 315 -14 127 -31 275 -36 330 -14 130 -15 134 -39 104
-10 -13 -38 -49 -62 -79 -24 -30 -87 -113 -140 -185 -53 -71 -101 -134 -105
-140 -5 -5 -60 -77 -123 -160 -63 -82 -143 -188 -179 -235 -36 -47 -102 -134
-148 -195 -101 -134 -116 -154 -173 -226 -44 -56 -108 -142 -180 -239 -19 -26
-62 -82 -95 -125 -33 -42 -69 -90 -80 -105 -11 -15 -32 -42 -47 -61 -28 -37
-141 -185 -195 -259 -63 -84 -108 -142 -120 -155 -6 -6 -24 -30 -40 -52 -38
-55 -214 -285 -231 -302 -8 -8 -24 -30 -37 -50 -19 -28 -153 -207 -192 -256
-9 -11 -170 -222 -268 -350 -33 -44 -78 -107 -100 -140 -48 -74 -61 -84 -105
-85 -49 0 -65 32 -36 75 11 17 23 32 26 35 4 3 38 48 78 100 140 186 231 305
256 335 13 17 42 53 63 81 21 28 80 104 130 170 51 65 142 184 204 264 61 80
118 154 127 165 9 11 44 56 77 100 33 44 65 86 72 95 7 8 35 44 62 80 28 36
54 70 59 75 4 6 29 39 56 75 76 100 110 145 117 150 4 3 19 23 35 46 38 54
183 244 198 260 6 6 49 62 96 124 47 62 99 130 115 150 17 21 55 70 85 110 30
40 75 98 100 130 25 32 69 88 98 126 28 38 80 106 115 150 34 45 108 142 165
215 56 74 145 190 197 258 53 68 94 129 92 135 -2 6 -64 18 -138 28 -148 19
-637 85 -909 123 -96 13 -260 36 -365 50 -276 37 -614 83 -815 110 -96 13
-245 33 -330 45 -85 11 -184 25 -220 30 -52 8 -441 60 -646 87 -23 3 -44 1
-47 -3z m-6802 -3918 c11 -7 34 -18 50 -23 27 -10 28 -11 10 -19 -11 -4 -25
-14 -30 -21 -9 -12 -15 -12 -37 0 -25 13 -26 15 -12 35 14 20 14 22 0 22 -9 0
-16 5 -16 10 0 14 12 13 35 -4z m-604 -30 c-7 -8 -20 -12 -28 -9 -11 4 -14 2
-9 -5 4 -7 6 -12 4 -13 -2 0 -52 -2 -113 -3 -60 -2 -98 -2 -82 1 15 2 27 8 27
12 0 4 31 7 70 7 39 -1 72 4 74 9 2 6 18 12 36 13 28 2 31 0 21 -12z m-320
-66 c5 0 9 -4 9 -9 0 -5 -9 -7 -20 -4 -23 6 -22 5 -13 30 7 17 8 17 11 1 2
-10 8 -18 13 -18z m56 14 c-3 -3 -12 -4 -19 -1 -8 3 -5 6 6 6 11 1 17 -2 13
-5z m-275 -56 c-7 -7 -12 -8 -12 -2 0 14 12 26 19 19 2 -3 -1 -11 -7 -17z
m16055 -114 c-3 -3 -12 -4 -19 -1 -8 3 -5 6 6 6 11 1 17 -2 13 -5z m-4802
-227 c11 -2 27 -7 35 -10 8 -4 60 -18 115 -32 101 -26 166 -57 147 -69 -20
-12 -412 68 -412 85 0 4 -19 10 -42 14 l-43 8 40 7 c40 6 123 4 160 -3z m4772
-93 c-3 -3 -12 -4 -19 -1 -8 3 -5 6 6 6 11 1 17 -2 13 -5z m-6807 -329 c17 -4
49 -18 70 -33 38 -24 40 -28 40 -78 0 -29 -4 -56 -10 -59 -5 -3 -10 -15 -10
-27 0 -11 -8 -32 -19 -46 -10 -15 -21 -40 -25 -55 -4 -16 -17 -45 -30 -66 -13
-20 -27 -52 -31 -71 -4 -19 -15 -48 -24 -65 -16 -31 -18 -36 -20 -70 -1 -17
-3 -18 -11 -5 -7 11 -10 6 -10 -21 0 -20 -6 -42 -13 -48 -8 -6 -26 -43 -41
-83 -15 -40 -36 -90 -47 -110 -11 -21 -20 -40 -19 -43 2 -31 -2 -55 -10 -50
-5 3 -12 -7 -15 -22 -3 -15 -14 -46 -25 -68 -57 -123 -70 -153 -70 -168 0 -9
-4 -19 -10 -22 -5 -3 -10 -15 -10 -26 0 -11 -13 -45 -30 -76 -16 -31 -30 -63
-30 -72 0 -9 -9 -29 -20 -46 -11 -16 -20 -37 -20 -46 0 -9 -7 -19 -15 -23 -8
-3 -15 -15 -15 -26 0 -12 -4 -29 -10 -39 -5 -10 -11 -31 -14 -47 -3 -16 -10
-30 -16 -32 -5 -2 -10 -14 -10 -26 0 -12 -7 -31 -15 -42 -8 -10 -15 -25 -15
-33 0 -8 -9 -32 -19 -55 -46 -96 -65 -142 -64 -153 0 -7 -6 -13 -14 -13 -8 0
-12 -4 -9 -9 7 -11 -11 -64 -46 -133 -16 -32 -42 -97 -59 -145 -17 -49 -46
-119 -64 -158 -18 -38 -39 -90 -46 -115 -7 -25 -16 -47 -19 -50 -9 -7 -70
-140 -70 -152 0 -8 -16 -46 -65 -153 -16 -36 -26 -78 -30 -125 -3 -50 -15
-120 -26 -155 -27 -89 -39 -123 -53 -150 -9 -16 -16 -35 -16 -41 0 -5 -11 -25
-25 -44 -13 -18 -22 -38 -18 -43 3 -6 1 -7 -5 -3 -7 4 -12 3 -12 -2 0 -13 -52
-67 -62 -65 -4 2 -8 -2 -8 -7 0 -6 -6 -10 -14 -10 -8 0 -17 -7 -20 -16 -5 -13
-19 -15 -69 -13 -34 2 -69 7 -77 10 -29 14 -55 22 -65 21 -6 -1 -19 15 -30 35
-16 29 -20 54 -18 120 1 81 26 173 46 173 5 0 6 4 2 10 -6 10 32 76 71 123 13
16 24 37 24 46 0 10 8 29 19 42 10 13 21 41 25 62 4 20 11 37 16 37 6 0 10 9
10 19 0 11 4 22 9 25 5 3 12 17 15 31 4 14 21 56 38 93 17 37 33 74 34 82 5
25 37 90 44 90 4 0 10 15 13 34 3 19 28 82 56 139 28 58 51 110 51 116 0 6 5
11 10 11 6 0 10 8 10 18 0 9 7 30 15 46 8 15 15 34 15 41 0 8 20 53 45 102 25
48 45 100 45 115 0 15 5 30 11 34 17 10 60 114 53 126 -4 7 -2 8 4 4 7 -4 12
-1 12 9 0 9 16 50 35 91 19 41 35 77 35 80 0 3 13 33 29 67 17 34 41 91 56
127 39 99 49 120 57 120 5 0 8 9 8 19 0 11 5 23 10 26 6 3 10 13 10 22 0 8 16
49 36 91 20 43 48 106 61 142 13 36 33 84 43 107 11 24 20 47 20 52 0 5 7 22
15 38 8 15 20 43 27 61 7 17 16 32 20 32 3 0 14 22 23 50 9 27 21 52 26 55 5
4 9 14 9 23 0 9 8 31 17 47 9 17 19 66 23 110 10 104 25 161 55 207 14 21 25
42 25 47 0 5 27 37 59 70 69 69 91 76 181 56z m4923 -975 c3 -13 0 -20 -8 -20
-17 0 -28 17 -20 30 10 16 22 12 28 -10z m-68 -81 c5 -14 2 -25 -6 -30 -19
-12 -49 -11 -49 1 0 6 -10 11 -22 11 l-23 2 23 4 c12 2 22 11 22 19 0 23 48
17 55 -7z m-94 -59 c5 0 9 -4 9 -10 0 -5 -11 -10 -25 -10 -16 0 -25 6 -25 16
0 11 5 14 16 10 9 -3 20 -6 25 -6z m-107 -39 c-11 -10 -23 -15 -28 -11 -12 12
-1 25 24 27 22 2 22 1 4 -16z m-54 -56 c0 -8 -9 -15 -20 -15 -13 0 -18 5 -14
15 4 8 12 15 20 15 8 0 14 -7 14 -15z m-75 -55 c3 -5 -1 -10 -9 -10 -9 0 -16
-7 -16 -15 0 -8 -6 -15 -13 -15 -7 0 -13 8 -13 19 0 11 5 17 13 14 7 -3 13 0
13 6 0 14 17 14 25 1z m-429 -330 c16 0 19 -26 3 -35 -13 -9 -15 -6 -22 30 -4
17 -4 24 -1 18 3 -7 12 -13 20 -13z m1937 -220 c3 -13 0 -20 -9 -20 -8 0 -14
9 -14 20 0 11 4 20 9 20 5 0 11 -9 14 -20z m-2273 -60 c0 -5 -5 -10 -11 -10
-5 0 -7 5 -4 10 3 6 8 10 11 10 2 0 4 -4 4 -10z m-213 -126 c-3 -3 -12 -4 -19
-1 -8 3 -5 6 6 6 11 1 17 -2 13 -5z m191 -50 c13 -2 22 -12 22 -22 -1 -19 -54
-82 -70 -82 -5 0 -10 -4 -10 -9 0 -13 -83 -91 -97 -91 -7 0 -13 -4 -13 -10 0
-12 -56 -70 -63 -64 -2 2 -10 -2 -17 -11 -7 -8 -18 -15 -24 -15 -6 0 -38 -25
-71 -56 -33 -31 -69 -60 -80 -65 -34 -16 -59 -33 -100 -65 -22 -17 -56 -37
-75 -44 -19 -8 -38 -18 -41 -23 -21 -31 -179 -42 -179 -13 0 8 -13 19 -30 26
-16 7 -30 19 -30 26 0 8 -9 14 -20 14 -13 0 -20 7 -20 20 0 14 7 20 21 20 14
0 19 5 17 19 -5 32 62 159 91 171 14 6 37 29 51 50 13 22 30 40 37 40 7 0 13
5 13 10 0 6 12 16 28 23 15 6 29 14 32 17 3 4 31 14 62 24 32 10 60 22 64 27
3 5 17 9 31 9 14 0 51 8 82 19 31 10 92 26 136 36 44 10 91 21 105 25 23 8 95
5 148 -6z"/>
<path d="M33855 8358 c-115 -16 -211 -31 -213 -33 -5 -5 62 -87 278 -335 102
-117 187 -216 188 -221 2 -5 8 -9 13 -9 5 0 9 131 9 315 l0 315 -32 -1 c-18
-1 -127 -15 -243 -31z"/>
<path d="M33190 8238 c-184 -38 -402 -82 -485 -98 -195 -39 -279 -56 -395 -79
-52 -11 -124 -25 -160 -31 -36 -6 -81 -15 -100 -20 -19 -5 -105 -22 -190 -39
-170 -32 -196 -38 -255 -51 -22 -4 -60 -11 -85 -15 -24 -4 -48 -9 -53 -12 -8
-5 -139 -29 -212 -38 -22 -3 -53 -10 -70 -15 -46 -14 -86 -22 -126 -25 -19 -2
-63 -10 -98 -19 -34 -9 -77 -16 -95 -16 -18 0 -36 -3 -40 -7 -4 -5 -17 -9 -29
-10 -45 -3 -86 -12 -106 -23 -12 -6 -26 -8 -32 -4 -6 4 -14 2 -18 -4 -3 -5
-26 -12 -51 -15 -73 -10 -103 -19 -124 -39 -11 -10 -28 -18 -38 -18 -10 0 -18
-6 -18 -14 0 -28 39 -104 93 -183 31 -44 57 -86 59 -94 2 -7 13 -22 26 -32 12
-10 22 -24 22 -32 0 -7 7 -18 15 -25 8 -6 44 -55 79 -108 36 -54 79 -117 97
-142 17 -25 50 -72 73 -105 22 -33 43 -62 46 -65 7 -7 82 -117 96 -141 6 -11
18 -27 27 -37 10 -10 17 -24 17 -30 0 -6 8 -17 18 -24 11 -7 25 -24 32 -38 7
-14 23 -33 34 -42 12 -10 28 -24 36 -31 14 -13 59 -40 70 -42 63 -10 128 -35
163 -63 7 -5 31 -12 55 -15 24 -3 51 -12 61 -21 10 -9 23 -16 30 -16 7 0 35
-11 63 -25 27 -14 55 -25 62 -25 7 0 27 -11 46 -25 19 -14 41 -25 50 -25 9 0
25 -8 36 -17 10 -10 29 -19 42 -21 22 -2 59 -29 51 -37 -7 -6 -172 16 -198 28
-14 5 -29 11 -33 12 -5 2 -9 3 -10 4 -2 1 -24 4 -50 6 -26 2 -60 11 -75 19
-16 8 -55 17 -88 21 -33 4 -73 14 -88 22 -16 8 -31 12 -34 9 -3 -3 -12 2 -20
10 -8 8 -23 12 -33 9 -10 -3 -21 -1 -25 5 -4 7 -14 3 -26 -12 -22 -24 -22 -52
0 -248 6 -52 13 -122 15 -155 3 -33 9 -109 15 -170 25 -258 33 -344 37 -410 5
-67 36 -142 64 -160 6 -4 54 -13 108 -21 67 -10 102 -20 112 -32 9 -10 32 -18
55 -20 75 -5 120 -14 144 -29 15 -10 36 -13 57 -10 20 3 34 2 34 -4 0 -6 5 -7
10 -4 6 3 10 20 10 36 0 18 4 28 10 24 6 -3 10 -16 10 -29 0 -22 2 -23 131
-23 80 -1 135 -5 142 -12 12 -12 61 -15 54 -3 -7 11 77 8 86 -3 6 -7 10 -6 13
0 2 6 20 9 39 7 20 -2 32 -8 29 -14 -4 -7 8 -8 35 -3 59 10 185 13 171 5 -11
-7 29 -12 180 -25 25 -2 115 -6 200 -10 85 -4 162 -11 171 -16 8 -4 55 -9 105
-10 49 -1 91 -5 94 -10 7 -10 142 -17 196 -9 39 6 44 5 44 -12 0 -14 8 -18 41
-18 36 0 41 2 36 20 -3 11 -2 20 1 20 14 -1 41 -27 35 -33 -10 -10 10 -8 27 3
9 5 19 5 26 -1 19 -15 114 -24 114 -10 0 6 9 11 20 11 11 0 20 -6 20 -14 0
-17 40 -22 138 -18 l72 4 0 1371 0 1372 -43 50 c-24 28 -146 172 -272 320
-126 149 -233 273 -239 277 -17 12 -31 10 -386 -64z m-1380 -3148 c0 -5 -4
-10 -9 -10 -6 0 -13 5 -16 10 -3 6 1 10 9 10 9 0 16 -4 16 -10z m2210 -160 c0
-5 -7 -10 -16 -10 -8 0 -12 5 -9 10 3 6 10 10 16 10 5 0 9 -4 9 -10z"/>
<path d="M25465 7330 c-4 -6 -10 -8 -15 -5 -5 3 -14 0 -22 -7 -7 -7 -28 -13
-46 -14 -18 -1 -43 -6 -55 -12 -60 -28 -181 -57 -197 -47 -5 3 -10 0 -10 -8 0
-9 -15 -17 -37 -21 -21 -3 -51 -13 -67 -21 -36 -19 -46 -19 -62 3 -12 16 -14
16 -28 -3 -8 -11 -20 -20 -28 -21 -26 -2 -58 -16 -58 -26 0 -5 -13 -8 -30 -6
-18 2 -38 -4 -52 -16 -15 -13 -38 -19 -75 -20 -33 0 -54 -5 -57 -13 -9 -22
-24 -14 -20 10 3 16 1 15 -7 -5 -11 -29 -29 -38 -29 -15 0 9 -2 9 -8 1 -4 -7
-38 -19 -77 -28 -38 -9 -87 -21 -107 -27 -21 -5 -49 -7 -63 -3 -18 4 -25 3
-23 -7 2 -8 -13 -16 -40 -21 -24 -5 -46 -16 -49 -24 -3 -8 -19 -14 -37 -14
-21 0 -27 -3 -18 -9 8 -5 -8 -6 -38 -3 -48 4 -94 -8 -111 -31 -3 -4 -32 -9
-65 -10 -32 -2 -69 -8 -81 -15 -12 -6 -38 -13 -57 -14 -20 -2 -36 -6 -36 -9 0
-7 -40 -21 -70 -25 -8 -1 -37 -12 -65 -24 -31 -14 -75 -23 -117 -25 -73 -3
-88 -9 -88 -31 0 -10 -12 -14 -39 -14 -22 0 -44 -6 -51 -15 -7 -8 -27 -15 -46
-15 -18 0 -35 -4 -39 -9 -6 -10 -45 -11 -45 -1 0 3 -13 5 -29 6 -23 1 -27 -3
-24 -17 4 -14 -3 -19 -34 -25 -21 -4 -56 -8 -78 -9 -22 -1 -57 -9 -77 -18 -21
-9 -60 -17 -87 -17 -33 0 -51 -5 -54 -14 -3 -8 -22 -16 -44 -18 -30 -2 -38 -7
-36 -22 1 -16 -4 -18 -38 -13 -22 3 -37 1 -33 -4 3 -5 -14 -9 -38 -9 -24 0
-54 -7 -68 -15 -49 -28 -53 -28 -66 -10 -13 17 -14 17 -14 2 0 -9 -7 -17 -15
-17 -7 0 -18 -7 -22 -15 -6 -11 -40 -17 -126 -24 -93 -8 -124 -14 -147 -31
-17 -12 -30 -26 -30 -33 0 -8 -3 -8 -12 1 -17 17 -38 15 -38 -3 0 -8 -4 -15
-10 -15 -5 0 -9 4 -7 9 4 17 -42 7 -55 -13 -4 -6 -12 -5 -22 3 -17 14 -36 7
-36 -15 0 -8 -9 -14 -20 -14 -11 0 -20 3 -20 8 0 4 -12 8 -27 9 -19 1 -22 -1
-12 -8 11 -7 11 -9 -4 -9 -18 0 -53 -17 -75 -37 -17 -16 -143 -8 -154 10 -5 8
-8 6 -8 -6 0 -10 10 -22 23 -28 20 -9 20 -9 1 -6 -11 2 -29 -2 -39 -9 -10 -8
-30 -14 -45 -14 -14 0 -33 -9 -42 -19 -12 -14 -30 -19 -69 -19 -37 -1 -49 2
-39 8 8 6 11 10 5 10 -5 0 -16 -4 -24 -9 -12 -8 -12 -12 -2 -24 12 -15 3 -16
-66 -8 -7 0 -13 10 -13 21 0 22 -33 28 -59 11 -17 -11 -7 -41 14 -41 12 0 15
-8 13 -27 -2 -16 -8 -28 -15 -28 -6 0 -15 -3 -19 -7 -4 -5 -48 -8 -97 -8 -73
0 -87 -2 -78 -13 8 -11 -1 -14 -51 -15 -37 -1 -65 -7 -70 -14 -6 -10 -8 -9 -8
2 -1 11 -4 10 -15 -4 -8 -11 -15 -16 -15 -10 0 5 -5 2 -10 -6 -8 -12 -10 -12
-10 -1 0 11 -3 11 -15 1 -10 -8 -15 -9 -15 -1 0 7 -8 8 -26 1 -14 -6 -40 -10
-59 -10 -19 0 -36 -4 -40 -10 -7 -11 -65 -9 -65 3 0 4 -21 5 -47 1 -46 -6 -48
-5 -48 20 0 21 7 27 42 38 27 8 38 15 30 20 -7 4 2 8 22 8 33 0 34 -1 15 -15
-10 -8 -15 -15 -10 -15 5 0 2 -7 -5 -17 -13 -15 -12 -15 7 -5 11 6 31 11 42
11 12 1 31 1 42 2 11 0 20 4 20 10 0 5 12 9 28 9 24 1 25 2 9 11 -10 6 -29 8
-43 5 -16 -4 -24 -2 -24 6 0 7 -12 18 -27 24 -45 19 -271 52 -533 79 -225 23
-372 38 -770 81 -410 43 -482 49 -486 42 -3 -5 52 -88 123 -186 71 -97 140
-193 153 -212 59 -83 103 -131 117 -126 8 3 12 2 9 -3 -3 -5 15 -9 39 -9 25
-1 54 -6 64 -12 27 -14 78 -13 84 3 4 7 6 6 6 -4 1 -19 27 -33 36 -19 3 5 12
7 19 4 8 -3 27 1 43 9 15 8 33 12 40 10 6 -2 14 1 18 6 3 6 17 11 31 11 13 0
24 5 24 10 0 6 17 10 38 10 27 0 33 -3 22 -10 -10 -6 -11 -10 -2 -10 6 0 22
10 33 21 l22 22 -29 -7 c-24 -5 -26 -4 -11 5 11 6 34 8 55 5 22 -4 32 -3 24 2
-9 6 -1 12 25 20 35 10 36 10 18 -4 -13 -10 -15 -14 -5 -12 20 4 100 -23 100
-34 0 -4 7 -8 15 -8 8 0 15 4 15 9 0 11 30 19 48 14 17 -6 15 -43 -3 -43 -8 0
-15 4 -15 10 0 11 -59 2 -75 -11 -6 -4 -40 -4 -75 1 -36 5 -66 6 -68 1 -1 -4
-13 -6 -25 -4 -13 3 -32 -4 -46 -16 -25 -22 -22 -27 8 -12 11 6 22 6 32 -1 11
-8 11 -9 -3 -4 -10 3 -18 2 -18 -3 0 -12 -39 -21 -46 -10 -3 5 -12 9 -21 9
-10 0 -14 -6 -10 -20 3 -12 0 -20 -7 -20 -14 0 -19 37 -5 45 14 9 11 25 -5 25
-8 0 -18 -10 -22 -22 -9 -31 -21 -37 -63 -32 -20 2 -31 2 -24 -2 7 -3 9 -12 6
-20 -3 -8 0 -14 7 -14 6 0 8 -5 5 -11 -4 -6 2 -19 14 -30 12 -11 21 -25 20
-32 0 -8 -2 -8 -6 1 -4 10 -8 9 -18 -4 -13 -19 -9 -54 7 -54 6 0 8 7 4 15 -3
8 10 -1 30 -20 19 -20 39 -33 44 -30 5 3 11 -4 15 -15 4 -11 11 -17 17 -14 5
3 25 -10 44 -30 19 -20 48 -39 64 -43 17 -3 30 -9 30 -14 0 -14 38 -11 44 4 5
10 7 10 12 0 3 -7 12 -13 20 -13 8 0 11 -6 7 -15 -3 -10 0 -15 8 -13 8 2 13
-4 13 -14 -1 -10 5 -18 13 -18 8 0 11 -4 8 -10 -3 -5 0 -11 7 -12 7 0 18 -2
23 -2 6 -1 21 -9 35 -19 13 -9 32 -17 42 -17 21 0 88 -39 88 -51 0 -5 7 -9 15
-9 9 0 18 -7 21 -15 4 -8 15 -15 25 -15 10 0 19 -4 19 -10 0 -5 9 -10 20 -10
10 0 24 -8 29 -19 6 -10 22 -22 36 -25 15 -4 30 -17 35 -31 5 -14 16 -25 25
-25 8 0 15 -4 15 -10 0 -5 9 -10 19 -10 10 0 22 -7 25 -16 4 -11 14 -15 32
-11 20 3 34 -3 57 -24 16 -16 34 -29 40 -29 5 0 24 -16 43 -35 26 -28 40 -35
71 -35 27 0 46 -7 65 -24 14 -14 28 -22 32 -19 3 3 12 0 20 -6 8 -7 21 -9 27
-5 8 4 9 3 5 -4 -4 -7 -4 -12 1 -12 4 0 22 -12 38 -26 17 -14 24 -23 18 -19
-8 4 -13 0 -13 -10 0 -9 5 -13 11 -10 6 4 25 4 44 1 27 -5 35 -13 40 -36 l6
-28 37 15 c27 11 33 11 25 2 -17 -17 -17 -30 0 -24 6 3 17 -5 22 -17 8 -18 21
-24 55 -28 37 -4 44 -8 42 -24 -2 -10 -1 -30 3 -45 6 -25 7 -25 21 -7 12 17
14 17 14 3 0 -10 5 -14 15 -11 8 4 15 1 15 -7 0 -7 3 -9 7 -6 3 4 12 -2 20
-13 8 -11 21 -20 30 -20 9 0 26 -9 38 -20 25 -24 95 -39 95 -21 0 6 5 11 10
11 6 0 10 -9 10 -20 0 -11 -5 -20 -11 -20 -15 0 17 -30 33 -30 17 -1 58 -35
58 -48 0 -6 -6 -12 -12 -15 -7 -2 -3 -2 9 -1 30 5 81 -26 86 -52 2 -15 0 -21
-8 -18 -7 3 -15 -4 -18 -15 -4 -15 -13 -21 -32 -21 -22 0 -26 4 -21 17 4 10 4
14 0 11 -4 -4 -16 -3 -27 3 -14 8 -18 8 -13 0 4 -6 2 -11 -4 -11 -6 0 -14 8
-17 18 -4 9 -15 25 -26 34 -10 9 -16 21 -13 26 3 5 -21 13 -54 16 -33 4 -60
11 -60 16 0 6 -9 10 -21 10 -11 0 -18 4 -15 9 3 4 -5 18 -17 29 -22 21 -23 21
-23 2 0 -11 5 -20 10 -20 5 0 7 -2 4 -5 -3 -3 -26 8 -52 25 -25 17 -54 32 -64
33 -14 1 -17 7 -13 31 4 28 2 30 -13 17 -10 -9 -16 -10 -16 -2 0 6 -6 11 -13
11 -7 0 -18 8 -25 18 -9 12 -24 17 -51 15 -39 -2 -77 14 -53 24 24 9 12 23
-21 23 -24 0 -41 8 -59 29 -17 18 -40 30 -67 35 -27 4 -41 11 -41 21 0 10 -10
15 -30 15 -17 0 -44 7 -60 15 -31 16 -40 35 -17 35 8 0 7 4 -3 10 -8 5 -19 10
-25 10 -5 0 -3 -5 5 -10 9 -6 10 -10 3 -10 -14 0 -43 27 -43 41 0 5 -11 9 -24
9 -13 0 -26 5 -28 10 -2 6 -18 12 -37 15 -18 2 -43 13 -55 24 -12 12 -27 21
-33 21 -5 0 -18 9 -28 20 -10 11 -30 20 -44 21 -14 0 -20 3 -13 6 10 4 8 9 -7
20 -12 8 -25 12 -30 8 -6 -3 -31 8 -57 25 -26 16 -54 30 -62 30 -7 0 -11 3 -9
8 3 4 -28 23 -69 42 -40 19 -74 40 -74 45 0 13 -57 43 -94 49 -16 3 -36 11
-45 18 -9 7 -33 22 -53 32 -21 10 -35 23 -32 27 3 5 -6 9 -20 9 -14 0 -42 11
-62 25 -20 14 -46 25 -56 25 -14 0 -18 5 -14 15 4 10 -1 15 -17 16 -21 0 -21
1 -2 10 15 7 10 8 -19 3 -32 -4 -38 -3 -33 10 5 12 1 15 -15 13 -14 -1 -26 6
-34 21 -6 13 -14 23 -18 23 -24 -3 -36 2 -58 22 -14 13 -33 22 -42 21 -10 -1
-21 7 -26 21 -10 26 -42 27 -96 5 -27 -12 -64 -58 -64 -80 0 -15 -63 -145 -75
-152 -5 -4 -7 -8 -2 -8 4 0 1 -10 -8 -23 -8 -13 -12 -27 -8 -30 3 -4 -1 -15
-10 -24 -8 -10 -18 -30 -22 -45 -4 -15 -13 -32 -21 -39 -8 -6 -14 -18 -14 -25
0 -11 -26 -69 -71 -156 -5 -10 -9 -25 -9 -33 0 -9 -4 -13 -10 -10 -6 3 -10 -5
-10 -19 0 -14 -4 -28 -10 -31 -5 -3 -10 -15 -10 -25 0 -11 -9 -34 -20 -52 -11
-18 -20 -40 -20 -49 0 -8 -9 -25 -20 -37 -12 -12 -17 -22 -13 -22 4 0 1 -6 -8
-13 -15 -11 -52 -113 -52 -143 0 -8 -2 -12 -5 -9 -5 5 -40 -65 -72 -145 -12
-30 -28 -62 -36 -71 -8 -8 -14 -21 -14 -27 0 -7 -4 -12 -10 -12 -5 0 -10 -16
-10 -35 0 -19 -4 -35 -10 -35 -5 0 -10 -8 -10 -19 0 -10 -7 -24 -15 -31 -8 -6
-22 -39 -32 -71 -13 -45 -19 -55 -25 -42 -6 14 -7 12 -6 -7 1 -14 -1 -31 -5
-37 -5 -7 -5 -13 -1 -13 4 0 0 -6 -10 -13 -9 -7 -18 -19 -20 -27 -1 -8 -9 -31
-18 -51 -9 -20 -19 -47 -23 -60 -4 -13 -13 -31 -20 -39 -8 -8 -14 -19 -15 -25
-6 -31 -43 -115 -51 -115 -4 0 -9 -13 -12 -29 -3 -16 -13 -36 -22 -44 -8 -9
-15 -25 -15 -36 0 -12 -4 -21 -10 -21 -5 0 -10 -6 -10 -12 0 -7 -12 -35 -25
-63 -14 -27 -25 -58 -25 -67 0 -9 -4 -20 -10 -23 -5 -3 -10 -15 -10 -26 0 -11
-4 -18 -9 -14 -8 4 -18 -13 -26 -45 -12 -44 -19 -60 -26 -60 -5 0 -9 -7 -9
-16 0 -9 -8 -28 -19 -42 -10 -15 -22 -42 -26 -60 -3 -17 -10 -32 -15 -32 -5 0
-11 -13 -15 -30 -4 -16 -11 -32 -16 -35 -8 -5 -27 -44 -44 -90 -11 -30 -13
-55 -3 -61 4 -3 8 -20 8 -37 0 -18 6 -39 13 -48 17 -22 68 -34 78 -17 6 10 16
8 46 -6 25 -12 39 -14 41 -6 3 8 8 7 19 -2 9 -7 35 -13 59 -13 24 0 43 -4 42
-9 -4 -14 42 -29 97 -32 91 -5 256 -40 266 -56 4 -6 30 -10 58 -10 30 0 55 -6
61 -14 7 -7 18 -10 25 -7 19 7 152 -15 190 -32 17 -7 71 -16 120 -19 67 -4 93
-10 102 -22 9 -13 22 -15 50 -11 22 4 32 3 24 -2 -21 -14 3 -22 57 -20 29 2
61 -4 82 -14 21 -11 54 -17 85 -16 28 1 60 -3 70 -9 11 -5 47 -14 80 -18 70
-9 63 -8 95 -21 14 -6 52 -11 85 -12 33 -1 69 -3 80 -5 11 -3 23 -5 28 -5 4
-1 12 -12 17 -26 10 -27 29 -32 47 -14 13 13 83 4 83 -11 0 -8 31 -13 150 -25
90 -9 195 -28 205 -36 5 -5 24 -9 43 -9 19 0 48 -6 65 -14 18 -8 59 -17 92
-20 33 -2 69 -7 80 -10 11 -3 45 -13 75 -21 30 -8 74 -17 98 -19 23 -2 48 -8
55 -14 7 -5 32 -12 57 -15 33 -5 40 -4 25 4 -21 10 -14 9 60 -10 17 -4 40 -7
52 -6 12 1 20 -2 17 -6 -5 -9 35 -23 43 -15 4 3 11 2 18 -4 6 -5 31 -11 56
-14 24 -3 78 -12 119 -20 41 -8 94 -15 118 -16 24 0 55 -6 70 -14 33 -17 171
-46 188 -39 7 2 29 -1 51 -7 21 -6 61 -14 88 -17 28 -3 52 -9 55 -13 3 -4 30
-13 60 -19 30 -7 69 -16 85 -21 17 -5 62 -12 100 -16 39 -3 76 -11 82 -16 7
-6 20 -7 29 -4 9 4 23 1 30 -5 8 -6 44 -15 81 -20 38 -5 100 -16 138 -24 39
-8 84 -17 100 -20 48 -6 72 -13 94 -24 11 -6 44 -11 73 -11 30 0 58 -4 64 -10
5 -5 25 -12 44 -15 19 -3 62 -10 95 -15 33 -6 80 -12 104 -15 24 -2 56 -8 70
-13 14 -6 71 -18 126 -28 55 -10 102 -21 105 -25 3 -4 39 -9 80 -13 41 -3 77
-11 78 -16 2 -6 25 -10 50 -10 26 0 68 -7 94 -14 25 -8 49 -12 51 -9 3 3 29
-3 56 -12 53 -17 179 -42 266 -51 28 -3 64 -12 82 -20 17 -8 52 -14 78 -14 25
0 44 -4 41 -9 -8 -13 30 -21 97 -21 32 0 66 -4 75 -9 17 -9 87 -22 132 -25 14
0 34 -6 45 -12 11 -6 35 -11 54 -13 76 -4 193 -30 211 -46 10 -9 23 -15 27
-12 5 3 54 -4 108 -15 55 -11 129 -24 165 -27 36 -4 74 -12 85 -18 11 -6 52
-14 90 -18 39 -4 78 -12 88 -17 11 -5 43 -10 73 -11 75 -3 218 -70 233 -110 5
-15 7 -27 4 -27 -3 0 2 -9 12 -20 14 -16 16 -29 11 -67 -3 -26 -13 -54 -21
-62 -32 -33 -162 -31 -330 3 -108 22 -147 37 -168 64 -14 16 -29 22 -55 22
-21 -1 -72 6 -116 14 -43 9 -82 14 -86 11 -5 -3 -11 -1 -15 5 -3 5 -21 10 -38
10 -18 0 -41 6 -52 13 -19 13 -145 40 -162 35 -8 -3 -137 18 -183 30 -14 3
-29 6 -35 7 -5 1 -19 4 -30 8 -11 3 -51 9 -90 12 -38 3 -88 10 -110 16 -22 6
-67 15 -100 21 -33 5 -64 14 -69 19 -6 5 -28 9 -50 9 -23 0 -57 4 -76 10 -19
5 -57 11 -85 12 -27 2 -53 6 -56 11 -8 10 -128 29 -140 22 -5 -4 -8 -1 -7 6 2
9 -27 17 -92 27 -52 7 -117 20 -145 27 -27 8 -78 16 -111 19 -34 2 -70 9 -81
14 -11 6 -59 16 -108 23 -49 6 -106 17 -126 24 -19 7 -48 10 -63 8 -16 -3 -31
-1 -35 6 -4 6 -25 14 -47 17 -21 3 -48 9 -59 14 -11 5 -45 11 -75 14 -85 9
-183 23 -200 29 -15 6 -112 18 -162 21 -14 0 -30 4 -34 8 -4 5 -15 8 -24 8
-10 0 -23 7 -30 15 -7 9 -20 13 -27 10 -8 -2 -23 0 -33 5 -10 5 -54 13 -97 16
-97 7 -102 8 -133 21 -14 6 -61 14 -105 18 -88 9 -83 8 -108 20 -10 4 -30 8
-45 9 -15 1 -31 4 -37 7 -5 3 -32 7 -59 8 -27 2 -60 7 -73 12 -17 6 -22 6 -17
-2 8 -14 -34 -2 -56 15 -8 7 -31 13 -50 15 -19 2 -43 9 -53 16 -11 8 -24 12
-31 9 -6 -2 -44 2 -85 10 -40 8 -88 12 -105 10 -21 -2 -26 -1 -17 5 10 7 0 11
-35 16 -27 4 -67 12 -89 17 -22 6 -53 12 -70 14 -16 2 -52 8 -80 14 -27 5 -79
10 -115 11 -39 1 -82 9 -107 20 -23 11 -55 20 -70 22 -16 2 -33 6 -38 9 -9 5
-48 11 -150 23 -104 12 -125 16 -158 30 -20 8 -54 15 -75 15 -21 0 -42 4 -47
9 -6 6 -35 12 -66 14 -31 3 -62 8 -68 11 -6 4 -25 8 -41 8 -17 1 -30 5 -30 10
0 5 -13 7 -29 3 -17 -3 -32 -2 -36 5 -3 5 -11 8 -16 5 -5 -4 -9 1 -9 11 0 14
-7 15 -55 9 -39 -4 -71 -2 -111 10 -30 9 -63 13 -73 10 -12 -3 -21 0 -25 10
-7 20 -46 19 -62 -2 -13 -17 -13 -17 -14 0 0 13 -9 17 -38 17 -21 0 -42 4 -48
10 -5 5 -32 13 -59 16 -28 3 -52 9 -55 13 -3 5 -34 11 -70 15 -36 3 -81 10
-100 16 -19 5 -53 9 -76 8 -22 0 -47 3 -55 8 -15 9 -18 10 -64 20 -16 4 -34
13 -38 21 -6 9 -26 14 -60 13 -81 -1 -189 8 -227 19 -19 6 -55 15 -80 21 -25
7 -59 16 -76 21 -56 17 -104 9 -104 -17 0 -8 -7 -25 -15 -38 -19 -29 -5 -75
25 -83 11 -3 20 -9 20 -13 0 -5 9 -11 20 -15 11 -3 29 -24 42 -46 15 -27 28
-39 44 -39 27 0 52 -23 60 -56 4 -14 16 -27 30 -30 13 -3 24 -10 24 -15 0 -5
7 -9 15 -9 8 0 15 -9 15 -20 0 -12 9 -24 23 -29 12 -5 36 -24 53 -42 32 -36
47 -49 104 -89 38 -27 100 -90 100 -102 0 -4 6 -8 14 -8 8 0 16 -7 20 -15 3
-8 11 -15 18 -15 7 -1 31 -19 53 -40 22 -22 45 -40 52 -40 7 0 10 -7 6 -17 -5
-12 -2 -15 9 -11 15 6 68 -34 68 -52 0 -16 101 -105 121 -106 19 -1 54 -37 64
-66 3 -9 15 -20 26 -23 10 -4 19 -11 19 -16 0 -6 5 -7 10 -4 6 3 10 1 10 -5 0
-6 21 -30 47 -53 26 -23 65 -59 87 -80 22 -20 44 -37 49 -37 6 0 20 -11 33
-25 13 -14 26 -25 30 -25 4 0 31 -25 60 -55 30 -30 56 -55 59 -55 10 0 50 -45
47 -53 -1 -5 2 -5 8 -2 7 4 14 -2 17 -14 3 -12 11 -21 18 -21 6 0 17 -11 23
-24 6 -13 23 -27 38 -30 27 -7 41 -20 87 -78 12 -15 25 -28 29 -28 3 0 35 -28
71 -62 84 -82 99 -94 114 -90 8 2 12 -1 11 -5 -4 -12 44 -73 56 -73 6 0 22
-13 36 -30 14 -16 28 -30 32 -30 14 0 48 -34 48 -48 0 -8 6 -12 15 -9 9 4 21
-5 32 -23 9 -17 21 -30 25 -30 4 0 17 -8 28 -18 11 -9 29 -25 41 -35 11 -10
23 -16 26 -13 6 6 53 -43 53 -55 0 -4 32 -33 71 -63 l71 -56 3113 0 3113 0 38
47 c21 27 45 55 53 63 7 8 20 28 27 45 7 16 13 24 14 18 0 -7 5 -13 11 -13 6
0 9 6 6 14 -3 8 21 43 58 82 34 37 61 73 59 79 -3 6 7 17 21 25 14 7 25 18 25
24 0 6 17 29 38 51 20 22 37 43 38 45 2 16 58 89 64 85 8 -5 25 42 22 58 -1 4
6 10 15 14 26 9 80 70 100 112 3 8 13 22 20 30 60 71 74 93 69 106 -3 9 1 18
9 21 7 3 11 12 8 20 -3 8 1 14 10 14 9 0 25 12 36 26 12 15 21 22 21 15 0 -6
5 -11 10 -11 6 0 10 11 10 25 0 14 6 25 13 25 11 0 57 58 57 73 0 14 83 129
97 134 23 9 71 61 79 86 4 12 9 24 13 27 3 3 15 22 26 44 11 23 33 45 52 54
18 9 33 22 33 29 0 7 9 18 20 25 11 7 20 20 20 29 0 17 57 79 72 79 5 0 6 11
2 24 -4 18 4 33 40 70 25 25 46 52 46 59 0 14 57 67 71 67 5 0 12 8 16 18 3 9
19 33 35 53 15 20 28 44 28 54 0 16 65 85 81 85 5 0 9 8 9 18 0 9 18 41 40 70
22 29 40 58 40 65 0 10 27 42 85 97 27 26 65 77 65 88 0 18 53 92 67 92 7 0
19 15 26 33 8 17 21 38 30 46 9 7 14 17 11 22 -3 5 3 6 13 2 10 -3 15 -3 11 2
-4 4 11 26 32 49 22 22 40 46 40 52 0 6 18 32 40 57 22 25 40 50 40 55 0 5 7
12 15 16 8 3 15 12 15 20 0 7 7 16 15 20 8 3 15 15 15 26 0 11 5 20 10 20 6 0
10 10 10 23 0 16 3 18 9 9 7 -11 11 -11 22 3 8 9 25 29 39 43 13 15 24 30 22
35 -1 4 3 7 8 7 6 0 10 10 10 21 0 12 16 40 36 63 49 58 53 63 107 135 26 35
47 68 47 72 0 5 7 9 15 9 8 0 16 5 16 10 3 19 5 25 19 50 8 15 15 20 18 12 2
-6 9 -12 14 -12 6 0 9 3 5 6 -10 11 35 87 80 134 23 25 54 57 68 71 14 15 25
34 25 43 0 10 4 15 8 12 4 -2 14 9 21 25 7 16 20 29 29 29 15 0 15 2 2 10 -13
9 -13 11 0 20 8 5 18 11 22 12 3 2 8 11 10 21 1 10 23 40 48 66 27 28 51 66
58 89 7 23 22 47 33 53 15 8 20 18 16 35 -2 13 -1 22 3 19 9 -6 57 48 72 81
12 28 26 45 68 89 11 12 20 26 20 33 0 7 14 26 30 44 17 17 30 39 30 49 0 11
9 21 23 24 13 4 31 19 41 35 9 16 22 35 29 42 17 18 57 68 87 108 14 18 44 57
67 86 23 28 39 55 35 59 -4 5 1 5 10 2 10 -3 20 -2 23 3 4 6 1 10 -4 10 -6 0
-11 5 -11 10 0 6 5 10 11 10 12 0 39 25 39 37 0 8 16 25 110 121 28 28 49 52
46 52 -4 0 -2 9 4 20 6 11 17 20 25 20 8 0 15 7 15 16 0 9 9 18 20 21 11 3 20
14 20 24 0 10 5 21 10 24 6 4 8 10 5 15 -3 4 2 25 11 46 16 38 16 95 -1 299
-3 33 -12 175 -21 315 -8 140 -17 269 -19 285 -9 68 -17 96 -27 93 -6 -2 -52
-83 -101 -179 -48 -96 -95 -181 -102 -189 -7 -8 -17 -27 -20 -42 -4 -16 -11
-28 -15 -28 -4 0 -10 -8 -14 -17 -3 -10 -10 -25 -15 -33 -5 -8 -19 -36 -31
-62 -12 -27 -26 -48 -31 -48 -7 0 -22 -37 -24 -60 0 -3 -9 -18 -21 -35 -11
-16 -27 -46 -34 -65 -8 -19 -24 -52 -37 -72 -13 -21 -23 -45 -23 -53 0 -9 -7
-18 -15 -21 -13 -5 -25 -29 -31 -61 -1 -6 -18 -39 -38 -73 -20 -33 -36 -65
-36 -69 0 -9 -61 -113 -79 -135 -6 -7 -14 -27 -17 -44 -3 -17 -12 -33 -19 -36
-7 -2 -16 -18 -20 -34 -3 -17 -13 -33 -21 -36 -8 -3 -14 -13 -14 -23 -1 -10
-10 -34 -20 -53 -11 -19 -29 -55 -40 -80 -12 -25 -27 -56 -34 -70 -7 -14 -19
-43 -26 -65 -7 -22 -19 -51 -26 -65 -8 -14 -29 -60 -47 -102 -19 -43 -37 -75
-41 -71 -4 4 -4 0 0 -10 3 -10 1 -17 -5 -17 -6 0 -11 -7 -11 -15 0 -16 -75
-160 -96 -186 -8 -8 -14 -21 -14 -29 0 -23 -94 -192 -117 -210 -13 -10 -23
-23 -23 -29 0 -16 -50 -33 -78 -26 -22 5 -23 7 -18 108 6 131 15 185 38 222
10 16 18 40 18 53 0 26 60 156 89 193 10 13 21 37 25 53 4 15 10 26 13 22 8
-8 33 42 33 68 0 15 3 17 9 8 6 -9 12 0 20 32 6 24 16 48 21 51 6 4 8 10 5 14
-2 5 7 19 20 31 14 13 25 27 25 32 0 16 44 103 56 111 7 4 15 21 19 37 4 17
11 30 16 30 5 0 9 9 9 20 0 11 4 20 10 20 5 0 7 7 4 15 -4 8 -1 15 5 15 6 0
18 18 27 40 9 22 20 40 25 40 5 0 20 26 34 58 15 31 30 64 36 72 5 8 21 40 37
70 15 30 29 57 32 60 3 3 6 11 8 19 1 7 13 27 26 45 13 17 26 43 30 59 3 15
11 27 16 27 6 0 10 5 10 10 0 6 9 20 20 32 11 12 20 29 20 37 0 15 69 161 81
171 3 3 9 16 12 30 3 14 15 35 27 47 11 12 20 26 20 30 0 12 79 163 102 195
11 16 16 32 13 38 -3 6 1 13 9 16 8 3 20 22 27 42 7 21 15 39 19 42 3 3 25 43
48 90 24 47 70 137 102 199 33 63 60 125 60 137 0 25 -35 42 -92 46 -21 1 -38
6 -38 11 0 5 -11 6 -24 3 -14 -3 -27 -2 -30 3 -3 5 -15 7 -26 4 -17 -5 -102
10 -140 24 -8 3 -37 8 -65 10 -27 3 -63 12 -79 20 -16 8 -54 17 -85 19 -31 2
-69 7 -86 10 -16 3 -51 8 -77 11 -27 3 -45 9 -42 14 3 5 -27 9 -68 9 -41 0
-79 5 -85 11 -5 5 -30 10 -54 11 -24 0 -54 7 -66 15 -15 10 -34 13 -53 10 -16
-4 -32 -2 -35 3 -3 6 -33 10 -66 10 -34 0 -58 4 -55 9 4 5 -20 11 -51 13 -62
4 -85 9 -93 19 -3 4 -34 10 -69 13 -89 9 -204 27 -216 34 -5 4 -26 8 -45 9
-19 1 -53 7 -75 12 -22 6 -59 12 -83 14 -23 2 -48 9 -54 15 -7 7 -17 12 -23
12 -5 0 -3 -5 5 -11 12 -9 11 -9 -5 -3 -11 4 -58 11 -104 15 -47 5 -88 14 -92
20 -4 7 -19 10 -36 6 -17 -3 -41 0 -55 7 -14 7 -43 13 -65 13 -22 0 -46 4 -53
8 -7 4 -35 9 -63 11 -27 2 -56 9 -63 15 -8 6 -24 9 -37 5 -13 -3 -32 1 -44 9
-11 8 -23 12 -26 9 -3 -3 -22 -1 -43 5 -22 6 -68 13 -104 17 -36 3 -72 10 -80
14 -8 4 -49 11 -92 15 -42 3 -85 13 -95 20 -11 9 -43 14 -84 15 -36 0 -70 5
-75 10 -8 8 -145 32 -251 43 -12 1 -24 5 -28 9 -4 4 -14 4 -22 1 -8 -3 -18 -1
-22 5 -4 7 -37 14 -74 16 -37 3 -82 9 -99 14 -34 11 -164 27 -185 23 -6 -1
-14 3 -18 9 -3 5 -22 10 -41 10 -19 0 -34 4 -34 9 0 5 -21 11 -47 14 -98 12
-201 27 -313 46 -154 27 -217 38 -330 57 -52 9 -101 21 -107 26 -7 6 -19 8
-28 5 -8 -4 -33 0 -56 8 -23 8 -55 15 -71 15 -16 0 -78 10 -138 21 -117 23
-166 20 -157 -9 15 -47 98 -280 106 -297 5 -11 17 -44 26 -72 9 -29 20 -55 25
-58 4 -3 11 -21 15 -41 3 -20 10 -44 15 -53 5 -9 20 -47 33 -86 52 -147 61
-170 67 -175 4 -3 7 -12 8 -20 0 -8 13 -46 27 -85 15 -38 42 -110 60 -160 41
-113 44 -121 66 -174 11 -24 19 -52 19 -61 0 -10 6 -31 14 -47 26 -53 45 -101
80 -208 7 -22 20 -56 29 -75 33 -74 45 -106 55 -140 6 -19 22 -64 36 -99 14
-36 26 -73 26 -83 0 -10 5 -18 10 -18 6 0 10 -10 10 -23 0 -13 4 -27 9 -33 5
-5 16 -34 26 -64 9 -30 23 -69 31 -87 8 -17 14 -38 14 -46 0 -9 4 -18 9 -21 5
-3 14 -28 21 -56 7 -27 15 -48 19 -46 4 3 8 -7 9 -22 1 -15 10 -45 20 -67 20
-41 51 -128 57 -156 2 -8 13 -37 25 -65 12 -27 26 -58 30 -69 4 -11 17 -43 29
-72 12 -28 21 -59 21 -67 0 -9 4 -24 9 -34 6 -9 22 -48 36 -87 15 -38 33 -83
40 -100 7 -16 21 -57 31 -90 10 -33 21 -64 25 -70 3 -5 14 -35 24 -65 10 -30
21 -59 26 -65 5 -5 9 -18 9 -30 0 -12 5 -26 12 -33 7 -7 9 -12 5 -12 -3 0 5
-21 18 -47 13 -27 29 -70 36 -98 6 -27 15 -55 20 -60 6 -8 50 -117 54 -135 1
-3 5 -22 9 -42 5 -21 12 -35 17 -32 5 3 9 -4 9 -16 0 -11 4 -28 9 -38 27 -53
76 -184 73 -195 -1 -4 5 -21 13 -37 8 -16 27 -62 41 -102 24 -71 44 -122 69
-183 7 -16 16 -41 20 -55 3 -14 10 -34 16 -45 11 -25 47 -126 62 -180 7 -22
24 -62 39 -90 99 -186 115 -241 94 -332 -14 -63 -22 -72 -76 -84 -35 -8 -47
-6 -75 11 -18 11 -35 30 -39 43 -4 16 -8 18 -14 9 -9 -13 -62 90 -62 121 0 9
-4 17 -10 17 -5 0 -10 16 -10 35 0 20 -11 63 -25 97 -14 34 -25 74 -25 89 0
15 -6 29 -14 32 -8 3 -17 21 -21 39 -4 18 -16 52 -26 75 -11 23 -19 49 -19 57
0 9 -8 30 -19 49 -10 18 -22 57 -26 85 -4 29 -11 52 -16 52 -5 0 -9 6 -9 14 0
7 -7 27 -15 42 -8 16 -15 36 -15 44 0 9 -5 21 -10 26 -6 6 -16 32 -24 60 -18
61 -43 134 -55 154 -5 9 -12 31 -16 50 -4 19 -13 49 -21 65 -18 41 -83 230
-97 283 -5 23 -14 42 -19 42 -4 0 -8 14 -8 30 0 17 -4 30 -10 30 -5 0 -12 22
-16 50 -4 27 -10 50 -14 50 -10 0 -42 80 -47 120 -2 19 -10 41 -17 50 -8 8
-17 31 -21 50 -4 19 -11 40 -15 45 -3 6 -17 39 -29 75 -13 36 -27 74 -32 85
-5 11 -27 76 -49 145 -22 69 -45 134 -50 145 -5 11 -21 56 -36 100 -14 44 -32
94 -39 110 -7 17 -34 93 -60 170 -26 77 -52 149 -58 160 -6 11 -10 26 -9 33 2
6 -1 12 -6 12 -5 0 -14 21 -20 48 -11 51 -28 102 -47 142 -6 14 -17 45 -24 70
-7 25 -17 54 -22 65 -14 29 -69 184 -81 225 -5 19 -14 39 -19 45 -5 5 -9 20
-9 32 0 13 -7 38 -16 54 -8 17 -46 119 -84 227 -37 109 -80 229 -94 267 -15
39 -31 86 -36 105 -5 19 -21 67 -35 105 -37 97 -66 177 -70 196 -2 8 -14 42
-28 75 -13 32 -33 86 -43 119 -10 33 -24 71 -31 85 -7 14 -13 32 -13 40 0 9
-9 33 -20 54 -10 21 -25 63 -31 92 -7 30 -16 54 -20 54 -5 0 -11 15 -14 33 -4
22 -16 39 -35 50 -33 20 -37 20 -45 7z m-3598 -995 c0 -8 -6 -15 -14 -15 -17
0 -17 17 0 23 6 3 12 6 13 6 0 1 1 -6 1 -14z m-554 -102 c-7 -2 -19 -2 -25 0
-7 3 -2 5 12 5 14 0 19 -2 13 -5z m-763 -186 c0 -4 4 -5 10 -2 6 3 7 -1 4 -9
-7 -18 -1 -19 44 -7 28 9 32 7 32 -10 0 -20 -7 -22 -52 -19 -22 1 -27 -2 -22
-14 8 -22 -37 -38 -109 -39 -46 0 -61 -4 -70 -19 -7 -10 -18 -18 -25 -18 -7 0
-11 4 -7 10 7 12 -46 5 -73 -9 -11 -6 -22 -8 -25 -4 -4 3 -9 -2 -13 -11 -9
-23 -45 -20 -51 4 -3 11 -12 20 -19 20 -8 0 -14 6 -14 14 0 9 7 12 19 9 10 -3
22 0 25 6 5 7 -3 11 -21 12 l-28 1 33 11 c43 13 82 -5 75 -37 -2 -11 3 -6 12
13 11 25 12 36 4 42 -20 12 5 17 51 9 33 -5 40 -9 28 -14 -10 -5 -25 -6 -33
-2 -9 3 -15 0 -15 -10 0 -11 6 -14 16 -10 9 3 33 6 55 6 41 0 53 14 20 25 -25
7 -17 30 12 41 62 21 137 27 137 11z m170 -32 c0 -8 -7 -15 -15 -15 -8 0 -18
0 -22 -1 -17 -1 -13 20 4 24 31 8 33 7 33 -8z m-1120 -181 c0 -8 -5 -12 -10
-9 -6 4 -8 11 -5 16 9 14 15 11 15 -7z m1580 -1314 c0 -5 -2 -10 -4 -10 -3 0
-8 5 -11 10 -3 6 -1 10 4 10 6 0 11 -4 11 -10z m580 -210 c0 -4 8 -7 18 -6 26
2 28 -48 3 -76 -20 -21 -21 -21 -21 -2 -1 17 -2 18 -13 2 -9 -12 -17 -14 -30
-7 -9 6 -22 7 -28 4 -19 -13 -6 76 14 90 18 13 57 10 57 -5z m120 -84 c0 -8 9
-18 20 -21 37 -12 23 -35 -20 -35 -33 0 -40 3 -40 20 0 11 -4 20 -10 20 -5 0
-7 7 -4 15 8 19 54 20 54 1z m140 -75 c0 -18 -30 -33 -55 -27 -42 11 -31 36
15 36 22 0 40 -4 40 -9z m93 -68 c-7 -2 -19 -2 -25 0 -7 3 -2 5 12 5 14 0 19
-2 13 -5z m647 -383 c12 -8 9 -10 -12 -10 -16 0 -28 5 -28 10 0 13 20 13 40 0z
m-5 -30 c-3 -5 -13 -10 -21 -10 -8 0 -14 5 -14 10 0 6 9 10 21 10 11 0 17 -4
14 -10z m865 -464 c0 -2 -7 -7 -16 -10 -8 -3 -12 -2 -9 4 6 10 25 14 25 6z
m140 -56 c0 -5 -4 -10 -10 -10 -5 0 -10 5 -10 10 0 6 5 10 10 10 6 0 10 -4 10
-10z m0 -40 c0 -5 -6 -10 -14 -10 -8 0 -18 5 -21 10 -3 6 3 10 14 10 12 0 21
-4 21 -10z m184 -86 c10 -25 7 -34 -9 -34 -9 0 -15 9 -15 25 0 28 15 34 24 9z
m216 -155 c0 -5 -4 -7 -10 -4 -6 3 -10 -4 -11 -17 0 -13 -3 -17 -6 -10 -3 7
-2 19 1 27 6 17 26 20 26 4z m509 -288 c17 -11 7 -41 -14 -41 -8 0 -15 5 -15
10 0 6 -8 11 -17 11 -17 1 -17 2 0 6 9 2 17 9 17 14 0 11 11 11 29 0z m321
-171 c0 -5 -8 -10 -17 -10 -15 0 -16 2 -3 10 19 12 20 12 20 0z m465 -360 c3
-5 1 -10 -4 -10 -6 0 -11 5 -11 10 0 6 2 10 4 10 3 0 8 -4 11 -10z m510 -200
c3 -5 -1 -10 -10 -10 -9 0 -13 5 -10 10 3 6 8 10 10 10 2 0 7 -4 10 -10z m515
-199 c0 -5 9 -11 20 -14 11 -3 19 -9 18 -14 -1 -4 10 -32 25 -62 15 -30 25
-56 22 -59 -3 -3 -5 0 -5 6 0 7 -6 12 -14 12 -8 0 -15 -16 -19 -40 -9 -70 -38
-85 -110 -55 -19 8 -37 11 -41 8 -3 -4 -6 -2 -6 4 0 6 -13 16 -29 21 -44 15
-66 64 -52 115 7 31 7 43 -2 49 -13 8 3 16 57 28 44 11 136 12 136 1z m-200
-151 c0 -5 -2 -10 -4 -10 -3 0 -8 5 -11 10 -3 6 -1 10 4 10 6 0 11 -4 11 -10z"/>
<path d="M20450 5985 c-7 -9 -8 -15 -2 -15 5 0 12 7 16 15 3 8 4 15 2 15 -2 0
-9 -7 -16 -15z"/>
<path d="M23003 6683 c9 -2 23 -2 30 0 6 3 -1 5 -18 5 -16 0 -22 -2 -12 -5z"/>
<path d="M22320 6520 c0 -5 6 -10 13 -10 8 0 7 -4 -3 -10 -8 -5 -10 -10 -4
-10 5 0 19 7 30 15 16 13 16 14 2 9 -10 -3 -18 -1 -18 5 0 6 -4 11 -10 11 -5
0 -10 -4 -10 -10z"/>
<path d="M21498 6313 c7 -3 16 -2 19 1 4 3 -2 6 -13 5 -11 0 -14 -3 -6 -6z"/>
<path d="M21185 6200 c-3 -5 -1 -10 4 -10 6 0 11 5 11 10 0 6 -2 10 -4 10 -3
0 -8 -4 -11 -10z"/>
<path d="M20813 6153 c9 -2 25 -2 35 0 9 3 1 5 -18 5 -19 0 -27 -2 -17 -5z"/>
<path d="M20967 6119 c7 -7 21 -7 44 -1 l34 10 -44 1 c-32 1 -42 -2 -34 -10z"/>
<path d="M20630 6074 l-25 -14 30 6 c35 8 39 10 28 17 -5 3 -19 -1 -33 -9z"/>
<path d="M31733 4828 c-12 -6 -27 -26 -33 -44 -10 -29 -7 -41 24 -107 20 -41
36 -82 36 -91 0 -9 5 -16 10 -16 6 0 9 -3 8 -7 -3 -15 14 -63 22 -63 5 0 18
-26 30 -57 12 -32 27 -67 34 -78 7 -11 19 -37 26 -58 7 -22 18 -51 26 -65 8
-15 14 -32 14 -38 0 -7 7 -14 15 -18 8 -3 15 -17 15 -31 0 -14 5 -25 10 -25 6
0 10 -5 10 -12 0 -19 94 -227 101 -223 3 2 6 -1 6 -8 0 -7 7 -28 15 -47 8 -19
25 -60 38 -90 12 -30 33 -75 45 -100 13 -25 35 -74 50 -110 15 -36 41 -94 58
-130 17 -36 30 -71 30 -77 0 -7 4 -13 9 -13 4 0 7 -3 7 -7 -3 -20 2 -34 11
-28 6 3 7 -1 4 -9 -3 -9 -2 -16 4 -16 5 0 13 -12 16 -27 4 -16 22 -59 40 -98
48 -101 66 -144 66 -160 0 -7 6 -20 14 -28 16 -16 52 -91 61 -130 4 -15 11
-30 16 -33 5 -3 9 -14 9 -25 0 -10 3 -19 8 -19 8 0 40 -69 54 -117 5 -18 13
-33 18 -33 6 0 10 -11 10 -24 0 -14 5 -28 10 -31 6 -3 10 -16 10 -29 0 -12 9
-32 20 -44 11 -12 20 -30 20 -40 0 -11 7 -25 15 -32 8 -7 15 -18 15 -24 0 -7
11 -34 24 -62 13 -27 29 -66 37 -87 7 -20 17 -37 22 -37 4 0 5 -5 2 -10 -3 -6
4 -25 17 -42 12 -18 24 -41 25 -52 2 -11 10 -31 18 -43 9 -13 13 -23 10 -23
-2 0 4 -17 15 -37 10 -21 30 -63 43 -94 14 -31 30 -60 36 -63 6 -4 11 -20 11
-36 0 -16 4 -31 9 -34 4 -3 11 -20 15 -37 3 -18 12 -37 20 -43 7 -6 24 -38 36
-71 13 -33 29 -69 36 -80 7 -11 15 -35 19 -52 3 -18 17 -54 32 -80 43 -77 53
-97 53 -108 0 -6 19 -49 43 -96 24 -47 49 -106 56 -132 8 -26 17 -47 20 -47 4
0 13 -17 20 -38 16 -46 26 -71 90 -203 28 -58 51 -111 51 -119 0 -7 6 -21 14
-29 8 -9 17 -29 20 -45 3 -15 11 -38 19 -50 27 -41 107 -226 107 -246 0 -11 9
-29 20 -40 11 -11 20 -24 20 -29 0 -16 52 -135 67 -152 7 -8 13 -23 13 -32 0
-15 17 -17 165 -17 l165 0 0 2309 c0 1270 -3 2316 -6 2325 -4 12 -20 16 -58
17 -28 0 -75 4 -104 8 -41 6 -55 4 -59 -6 -9 -22 -32 -15 -39 12 -8 32 -34 33
-34 1 0 -13 -7 -27 -16 -30 -8 -3 -12 -2 -9 4 3 6 -1 10 -10 10 -8 0 -18 7
-21 15 -5 12 -15 14 -40 9 -19 -3 -40 -2 -47 4 -6 5 -34 12 -62 14 -27 3 -58
8 -68 12 -13 6 -16 5 -11 -8 4 -10 1 -16 -9 -16 -8 0 -17 4 -19 8 -4 12 -76
23 -83 12 -3 -4 -20 0 -40 10 -20 10 -45 15 -62 12 -15 -3 -22 -7 -15 -10 6
-2 9 -8 6 -13 -3 -6 -11 -6 -20 2 -7 6 -21 9 -29 5 -8 -3 -15 -1 -15 4 0 5 10
10 22 12 13 2 24 11 26 22 3 16 0 18 -19 11 -13 -5 -49 -9 -79 -9 -30 0 -45
-1 -33 -3 12 -2 24 -11 27 -19 8 -20 -40 -19 -52 2 -9 16 -37 12 -96 -12 -16
-6 -18 -4 -14 14 6 21 3 22 -65 24 -89 1 -116 4 -144 13 -16 5 -23 3 -23 -6
-1 -10 -5 -8 -15 5 -11 15 -29 19 -87 21 -46 2 -65 0 -53 -5 16 -7 12 -9 -17
-9 -37 -1 -51 12 -25 22 6 3 -3 6 -20 6 -18 1 -33 -4 -33 -9 0 -7 -7 -7 -21 1
-12 6 -32 9 -45 6 -13 -2 -21 0 -18 4 3 5 -13 9 -35 9 -26 0 -41 -5 -41 -12 0
-10 -2 -10 -9 0 -5 9 -32 14 -80 15 -39 1 -71 5 -71 11 0 5 -8 2 -19 -8 -15
-13 -20 -14 -29 -3 -7 9 -30 12 -69 10 -94 -4 -118 -3 -121 7 -2 5 -12 4 -23
-3 -15 -9 -23 -9 -39 0 -11 7 -21 9 -25 3 -5 -8 -48 -7 -125 4 -19 3 -45 0
-57 -6z"/>
<path d="M20986 4791 c-4 -5 3 -7 14 -4 23 6 26 13 6 13 -8 0 -17 -4 -20 -9z"/>
<path d="M33790 4696 c0 -9 5 -16 10 -16 6 0 10 4 10 9 0 6 -4 13 -10 16 -5 3
-10 -1 -10 -9z"/>
<path d="M31243 4580 c-11 -5 -35 -29 -52 -53 -17 -25 -48 -63 -70 -84 -21
-22 -42 -50 -45 -61 -4 -12 -12 -22 -17 -22 -5 0 -9 -7 -9 -15 0 -9 -6 -18
-14 -21 -7 -3 -22 -23 -32 -45 -13 -26 -24 -37 -34 -33 -8 3 -11 2 -8 -2 10
-9 -41 -74 -58 -74 -8 0 -14 -10 -14 -24 0 -13 -7 -26 -15 -30 -8 -3 -15 -12
-15 -21 0 -8 -6 -15 -14 -15 -16 0 -46 -42 -46 -64 0 -7 -7 -16 -14 -19 -8 -3
-22 -20 -31 -38 -9 -17 -35 -49 -57 -70 -25 -24 -37 -42 -32 -50 5 -9 2 -10
-10 -6 -14 5 -17 3 -12 -8 3 -8 0 -14 -6 -12 -6 1 -16 -13 -22 -31 -6 -18 -15
-30 -19 -26 -4 4 -7 2 -7 -5 0 -6 -4 -17 -10 -24 -58 -70 -80 -100 -80 -108 0
-6 -8 -9 -17 -7 -14 2 -17 -3 -15 -19 2 -14 -2 -23 -10 -23 -13 -1 -66 -69
-80 -102 -4 -10 -12 -18 -18 -18 -5 0 -10 -6 -10 -12 0 -7 -21 -35 -46 -61
-26 -26 -44 -50 -41 -53 3 -3 -2 -14 -11 -25 -9 -10 -28 -32 -42 -49 -14 -17
-35 -41 -47 -54 -13 -13 -23 -28 -23 -34 0 -6 -13 -19 -30 -28 -18 -11 -28
-25 -27 -37 1 -11 -7 -24 -18 -31 -28 -16 -43 -37 -51 -70 -4 -21 -8 -25 -15
-15 -7 11 -9 10 -9 -3 0 -11 -8 -18 -19 -18 -14 0 -18 -5 -14 -20 3 -11 0 -20
-6 -20 -6 0 -22 -22 -35 -49 -14 -27 -34 -51 -45 -54 -11 -3 -26 -18 -33 -34
-7 -15 -27 -46 -45 -69 -18 -22 -30 -44 -26 -48 4 -4 -1 -4 -10 0 -13 5 -20 1
-24 -15 -3 -11 -9 -21 -14 -21 -5 0 -9 -5 -9 -11 0 -6 -11 -20 -25 -31 -14
-11 -25 -26 -25 -33 0 -8 -9 -19 -20 -25 -11 -6 -20 -19 -20 -30 0 -11 -7 -25
-16 -32 -32 -26 -74 -73 -74 -82 0 -6 -16 -25 -36 -43 -27 -23 -35 -38 -31
-53 3 -11 1 -17 -4 -14 -11 6 -39 -19 -39 -35 0 -6 -4 -11 -10 -11 -16 0 -51
-40 -45 -50 3 -5 -10 -23 -30 -41 -19 -18 -35 -41 -35 -51 0 -11 -4 -17 -8
-14 -5 3 -16 -8 -26 -25 -9 -16 -21 -29 -26 -29 -5 0 -18 -17 -29 -38 -10 -20
-31 -47 -45 -59 -14 -13 -26 -29 -26 -36 0 -8 -13 -26 -30 -40 -16 -15 -30
-31 -30 -36 0 -13 -50 -65 -82 -85 -15 -10 -30 -31 -33 -46 -4 -16 -19 -40
-34 -53 -15 -12 -26 -28 -23 -35 2 -7 -1 -12 -7 -12 -7 0 -16 -12 -21 -26 -6
-14 -19 -28 -30 -31 -23 -6 -26 -23 -8 -41 9 -9 8 -12 -4 -12 -23 0 -106 -90
-114 -122 -4 -19 -12 -28 -25 -28 -11 0 -22 -8 -25 -17 -3 -10 -10 -25 -15
-33 -5 -8 -12 -22 -16 -30 -7 -16 -42 -56 -84 -96 -15 -14 -34 -42 -44 -64 -9
-21 -26 -40 -36 -43 -10 -3 -29 -27 -41 -53 -13 -27 -27 -51 -32 -53 -23 -10
-55 -51 -50 -65 3 -8 -3 -19 -15 -26 -12 -6 -21 -16 -21 -23 0 -16 -55 -77
-70 -77 -7 0 -10 -6 -8 -12 3 -7 -2 -19 -9 -27 -8 -7 -17 -26 -20 -42 -4 -21
-10 -28 -27 -26 -17 2 -20 -3 -18 -20 3 -19 -2 -23 -22 -23 -14 0 -26 -4 -26
-10 0 -30 -18 -62 -31 -55 -5 4 -9 -3 -9 -14 0 -21 -40 -71 -57 -71 -6 0 -13
-13 -16 -30 -4 -16 -12 -30 -19 -30 -14 0 -68 -71 -68 -89 0 -7 -16 -21 -35
-32 -19 -12 -35 -29 -35 -39 0 -9 -13 -33 -29 -53 -15 -20 -34 -50 -41 -67 -7
-18 -22 -33 -36 -36 -13 -3 -24 -13 -24 -20 0 -8 -12 -20 -27 -27 -22 -9 552
-13 2771 -15 1540 -1 2801 -1 2802 1 4 4 -19 70 -26 77 -6 5 -26 53 -61 145
-13 33 -29 69 -35 80 -7 11 -15 35 -19 52 -4 18 -14 37 -22 42 -9 4 -13 14
-11 22 3 8 -9 43 -27 79 -17 36 -42 92 -54 125 -13 33 -30 74 -37 92 -8 17
-14 36 -14 41 0 6 -4 12 -9 14 -13 5 -62 118 -56 128 3 5 1 11 -5 15 -16 10
-70 128 -70 153 0 12 -6 25 -13 28 -8 3 -14 11 -14 19 0 12 -62 162 -102 244
-9 19 -15 37 -15 40 1 3 -9 19 -22 34 -13 16 -24 38 -24 50 0 18 -24 76 -61
149 -5 10 -9 23 -9 30 0 6 -13 39 -29 72 -15 34 -41 89 -57 124 -15 34 -31 62
-35 62 -4 0 -10 16 -13 35 -4 19 -21 63 -38 98 -16 34 -34 71 -38 82 -5 11
-18 41 -29 68 -11 26 -18 47 -16 47 3 0 -9 26 -25 59 -17 32 -30 61 -30 65 0
4 -21 50 -47 104 -26 53 -47 106 -48 116 -1 11 -7 22 -13 24 -7 2 -12 14 -12
26 0 13 -9 35 -21 50 -11 14 -18 26 -15 26 3 0 -11 31 -30 70 -18 38 -34 77
-34 86 0 9 -15 46 -34 83 -18 36 -38 77 -43 91 -6 14 -29 68 -53 120 -23 52
-51 119 -61 149 -11 30 -23 59 -28 65 -5 6 -14 30 -20 53 -6 23 -18 49 -26 57
-8 8 -15 19 -15 24 0 5 -11 30 -25 56 -14 26 -25 53 -25 61 0 13 -10 36 -61
138 -10 22 -19 46 -19 55 0 10 -9 28 -20 42 -11 14 -20 33 -20 43 0 17 -3 25
-34 84 -9 17 -16 38 -16 46 0 9 -6 22 -14 29 -7 8 -17 25 -21 38 -9 32 -32 87
-51 123 -8 16 -14 33 -14 38 0 5 -18 46 -39 91 -22 46 -52 112 -66 148 -33 80
-41 86 -82 70z"/>
<path d="M16350 3510 c0 -5 12 -10 28 -10 21 0 24 2 12 10 -20 13 -40 13 -40
0z"/>
<path d="M16326 3413 c-7 -18 14 -37 27 -24 9 9 -1 41 -13 41 -4 0 -11 -8 -14
-17z"/>
<path d="M17915 2240 c4 -6 -6 -10 -23 -10 -39 0 -91 -53 -116 -116 -10 -27
-25 -56 -32 -64 -7 -8 -34 -60 -60 -115 -27 -55 -52 -101 -56 -103 -4 -2 -8
-10 -8 -18 0 -8 -4 -14 -10 -14 -5 0 -10 -11 -10 -24 0 -13 -7 -29 -15 -36
-19 -16 -64 -97 -69 -125 -5 -29 -23 -63 -46 -87 -9 -10 -22 -35 -28 -56 -7
-20 -22 -53 -34 -72 -12 -19 -23 -37 -23 -40 -7 -25 -37 -79 -49 -89 -9 -7
-13 -17 -10 -22 4 -7 -20 -55 -36 -69 -3 -3 -25 -45 -49 -95 -23 -49 -56 -115
-72 -145 -16 -30 -48 -93 -71 -140 -24 -47 -46 -87 -49 -90 -11 -9 -40 -70
-33 -70 4 0 0 -7 -7 -16 -16 -19 -33 -48 -52 -89 -8 -16 -21 -36 -30 -44 -10
-7 -17 -25 -17 -38 0 -28 -48 -123 -62 -123 -4 0 -8 -8 -8 -18 0 -27 -23 -72
-37 -72 -7 0 -15 -17 -19 -38 -7 -40 -40 -102 -55 -102 -5 0 -9 -9 -9 -20 0
-12 -7 -34 -15 -50 l-16 -30 1871 0 1871 0 -11 21 c-6 11 -18 23 -26 26 -8 3
-14 12 -14 19 0 8 -11 19 -25 24 -14 5 -52 35 -85 67 -34 32 -73 65 -88 75
-15 9 -36 31 -47 48 -11 16 -27 32 -36 35 -8 3 -34 22 -56 43 -23 20 -60 51
-82 67 -22 17 -50 45 -62 63 -11 18 -33 39 -47 46 -15 8 -56 44 -91 80 -35 36
-68 66 -72 66 -5 0 -9 6 -9 14 0 8 -22 28 -50 46 -27 18 -50 36 -50 41 0 5 -7
9 -15 9 -8 0 -15 6 -15 13 0 15 -78 77 -98 77 -7 0 -12 6 -10 12 3 7 -14 26
-36 42 -23 16 -46 36 -51 43 -6 8 -22 19 -35 26 -14 7 -29 26 -35 45 -7 23
-15 32 -31 32 -32 0 -54 10 -54 25 0 15 -92 101 -117 110 -10 3 -36 28 -57 55
-22 28 -44 50 -50 50 -6 0 -26 18 -45 40 -19 22 -42 40 -52 40 -13 0 -19 7
-19 23 0 18 -2 19 -10 7 -7 -11 -10 -11 -10 -2 0 7 -4 10 -10 7 -5 -3 -10 0
-10 8 0 12 -70 77 -83 77 -10 0 -117 109 -117 120 0 6 -11 15 -24 20 -31 11
-124 97 -131 121 -3 10 -15 21 -25 24 -10 3 -36 21 -57 40 -21 19 -41 35 -44
35 -12 0 -69 58 -69 69 0 6 -5 11 -11 11 -12 0 -49 38 -49 51 0 9 -92 64 -102
61 -5 -1 -8 4 -8 12 0 8 -5 16 -11 18 -5 2 -11 12 -13 23 -2 12 -12 21 -24 23
-12 2 -30 14 -41 28 -10 13 -23 24 -27 24 -5 0 -22 11 -38 25 -31 26 -41 31
-31 15z"/>
<path d="M7190 65 c-52 -6 -106 -16 -120 -22 -46 -21 -65 -26 -82 -24 -9 1
-19 -3 -23 -9 -4 -7 79 -10 267 -9 150 1 264 4 254 6 -11 3 -28 15 -37 27 -10
11 -18 18 -19 14 0 -4 -12 -3 -27 3 -53 20 -119 25 -213 14z"/>
<path d="M2258 3 c6 -2 18 -2 25 0 6 3 1 5 -13 5 -14 0 -19 -2 -12 -5z"/>
</g>
</svg>
