<?xml version="1.0" standalone="no"?>
<!DOCTYPE svg PUBLIC "-//W3C//DTD SVG 20010904//EN"
 "http://www.w3.org/TR/2001/REC-SVG-20010904/DTD/svg10.dtd">
<svg version="1.0" xmlns="http://www.w3.org/2000/svg"
 width="500.000000pt" height="500.000000pt" viewBox="0 0 500.000000 500.000000"
 preserveAspectRatio="xMidYMid meet">

<g transform="translate(0.000000,500.000000) scale(0.100000,-0.100000)"
fill="#000000" stroke="none">
<path d="M2292 4393 c-6 -10 -101 -252 -211 -538 -111 -285 -203 -520 -204
-522 -2 -1 -104 238 -228 532 l-224 535 -253 0 -252 0 2 -1467 3 -1468 299 0
300 0 135 353 136 352 110 0 110 0 150 -352 150 -353 185 0 184 0 150 353 150
352 116 0 115 0 129 -343 c71 -188 133 -348 139 -355 7 -9 75 -12 301 -10
l291 3 3 1468 2 1467 -253 0 -252 0 -220 -526 c-121 -289 -222 -527 -225 -529
-3 -2 -98 236 -211 528 l-205 532 -207 3 c-189 2 -207 1 -215 -15z m-802 -992
c115 -271 210 -500 210 -509 0 -12 -353 -933 -421 -1097 -4 -11 -8 459 -8
1044 -1 585 1 1062 4 1060 2 -3 99 -227 215 -498z m2238 -1089 l-3 -528 -210
544 c-115 299 -211 552 -213 562 -2 14 320 790 407 980 15 33 16 0 19 -498 1
-292 1 -770 0 -1060z m-937 1008 c61 -162 121 -322 134 -356 l23 -61 -87 -209
-88 -209 -51 -3 -52 -3 0 572 c0 315 2 570 5 568 2 -3 54 -137 116 -299z
m-461 -280 l0 -560 -49 0 c-30 0 -51 5 -54 13 -3 6 -41 98 -86 204 -45 106
-81 197 -81 203 0 13 261 700 266 700 2 0 4 -252 4 -560z"/>
</g>
</svg>
